<?xml version="1.0" standalone="no"?>
<!DOCTYPE svg PUBLIC "-//W3C//DTD SVG 20010904//EN"
 "http://www.w3.org/TR/2001/REC-SVG-20010904/DTD/svg10.dtd">
<svg version="1.0" xmlns="http://www.w3.org/2000/svg"
 width="2004.000000pt" height="984.000000pt" viewBox="0 0 2004.000000 984.000000"
 preserveAspectRatio="xMidYMid meet">

<g transform="translate(0.000000,984.000000) scale(0.100000,-0.100000)"
fill="#000000" stroke="none">
<path d="M16950 9530 c0 -53 4 -90 10 -90 6 0 10 22 10 49 0 41 4 51 20 56 31
10 40 -2 40 -56 0 -27 5 -49 10 -49 7 0 10 24 8 63 l-3 62 -37 -1 c-35 -1 -38
1 -38 27 0 16 -4 29 -10 29 -6 0 -10 -37 -10 -90z"/>
<path d="M17560 9532 l0 -88 34 -2 c44 -3 66 19 66 67 0 45 -19 65 -55 59 -22
-5 -25 -2 -25 23 0 16 -4 29 -10 29 -6 0 -10 -36 -10 -88z m68 6 c27 -27 7
-78 -30 -78 -14 0 -18 8 -18 38 0 52 20 68 48 40z"/>
<path d="M18160 9595 c0 -21 -5 -25 -29 -25 -49 0 -77 -61 -51 -110 8 -15 20
-19 55 -18 l45 2 0 88 c0 52 -4 88 -10 88 -5 0 -10 -11 -10 -25z m-5 -90 c0
-33 -4 -41 -22 -43 -38 -6 -53 57 -19 80 25 18 41 3 41 -37z"/>
<path d="M16800 9525 c0 -69 3 -85 15 -85 10 0 15 10 15 30 0 25 4 30 25 30
26 0 65 31 65 53 0 7 -7 23 -16 35 -12 17 -25 22 -60 22 l-44 0 0 -85z m88 36
c4 -25 -12 -41 -40 -41 -14 0 -18 8 -18 36 0 33 2 35 28 32 20 -2 28 -9 30
-27z"/>
<path d="M17096 9548 c-32 -46 -7 -108 43 -108 36 0 55 23 55 65 0 18 -6 40
-13 49 -20 24 -67 20 -85 -6z m69 -43 c0 -35 -3 -40 -24 -40 -28 0 -42 30 -30
63 6 17 15 22 31 20 20 -3 23 -9 23 -43z"/>
<path d="M17230 9503 c0 -35 4 -63 10 -63 6 0 10 22 10 49 0 41 4 51 20 56 31
10 40 -2 40 -56 0 -27 5 -49 10 -49 7 0 10 24 8 63 l-3 62 -47 1 -48 1 0 -64z"/>
<path d="M17376 9548 c-20 -29 -20 -58 0 -86 12 -18 24 -22 52 -20 48 4 54 26
6 24 -21 -1 -39 4 -41 12 -3 8 8 12 36 12 37 0 41 3 41 24 0 53 -65 76 -94 34z
m64 -18 c10 -18 8 -20 -20 -20 -18 0 -30 5 -30 13 0 32 34 37 50 7z"/>
<path d="M17700 9505 c0 -37 4 -65 10 -65 6 0 10 15 10 34 0 25 7 40 25 54 14
11 25 25 25 31 0 16 -10 14 -32 -6 -17 -15 -18 -15 -18 0 0 10 -4 17 -10 17
-6 0 -10 -28 -10 -65z"/>
<path d="M17807 9563 c-15 -14 -6 -21 24 -19 18 0 34 -5 36 -11 3 -8 -5 -13
-20 -13 -27 0 -57 -23 -57 -43 1 -28 18 -38 61 -35 l44 3 0 53 c-1 35 -6 56
-15 62 -17 11 -64 13 -73 3z m61 -80 c-4 -20 -35 -30 -50 -15 -15 15 0 32 28
32 19 0 25 -5 22 -17z"/>
<path d="M17940 9503 c0 -35 4 -63 10 -63 6 0 10 22 10 49 0 42 3 51 21 56 28
9 39 -8 39 -62 0 -24 5 -43 10 -43 15 0 12 106 -2 118 -7 6 -30 10 -50 9 l-38
-1 0 -63z"/>
<path d="M690 9290 c0 -93 4 -150 10 -150 6 0 10 57 10 150 0 93 -4 150 -10
150 -6 0 -10 -57 -10 -150z"/>
<path d="M4300 9290 c0 -93 4 -150 10 -150 6 0 10 33 10 80 0 79 0 80 31 95
17 9 42 15 57 13 27 -3 27 -3 30 -95 4 -122 22 -121 22 1 0 70 -4 97 -15 106
-15 12 -75 10 -107 -4 -16 -7 -18 -2 -18 48 0 31 -4 56 -10 56 -6 0 -10 -57
-10 -150z"/>
<path d="M5330 9395 l0 -45 -44 0 c-73 0 -116 -57 -102 -136 11 -58 37 -75
106 -72 l60 2 0 148 c0 92 -4 148 -10 148 -5 0 -10 -20 -10 -45z m-2 -138 c3
-79 -6 -97 -53 -97 -54 0 -87 58 -65 115 15 40 39 55 80 52 l35 -2 3 -68z"/>
<path d="M6180 9290 c0 -93 4 -150 10 -150 6 0 10 57 10 150 0 93 -4 150 -10
150 -6 0 -10 -57 -10 -150z"/>
<path d="M6810 9292 l0 -148 50 -3 c59 -2 85 9 105 49 19 37 19 83 0 120 -17
33 -50 45 -101 37 l-34 -6 0 50 c0 27 -4 49 -10 49 -6 0 -10 -56 -10 -148z
m129 12 c25 -31 27 -64 6 -103 -16 -33 -33 -41 -81 -41 l-34 0 0 75 c0 60 3
76 18 84 32 19 69 12 91 -15z"/>
<path d="M236 9409 c-29 -22 -35 -64 -13 -92 6 -9 35 -26 62 -37 28 -12 58
-29 68 -37 57 -52 -39 -109 -115 -69 -24 13 -28 13 -28 1 0 -39 110 -49 154
-14 19 15 26 30 26 53 0 40 -21 61 -82 82 -62 21 -85 46 -70 79 14 31 53 41
100 27 42 -13 55 -6 28 14 -30 21 -99 18 -130 -7z"/>
<path d="M1476 9417 c-5 -9 -7 -62 -4 -117 3 -81 8 -105 24 -127 38 -51 131
-47 159 7 18 34 22 250 5 250 -6 0 -10 -43 -10 -109 0 -94 -3 -112 -21 -135
-15 -19 -30 -26 -55 -26 -34 0 -73 27 -75 53 -1 6 -4 59 -8 117 -4 67 -10 99
-15 87z"/>
<path d="M1760 9286 c0 -91 4 -146 10 -146 6 0 10 27 10 60 0 48 3 60 16 60 9
0 46 -27 82 -60 86 -78 114 -78 38 -1 l-59 60 27 7 c56 14 74 83 33 129 -19
23 -33 28 -90 32 l-67 6 0 -147z m143 93 c23 -29 22 -45 -8 -74 -18 -19 -35
-25 -70 -25 l-45 0 0 66 0 67 53 -6 c36 -5 57 -13 70 -28z"/>
<path d="M2020 9285 l0 -145 70 0 c84 0 94 18 13 22 l-58 3 -3 133 c-4 183
-22 173 -22 -13z"/>
<path d="M2375 9418 c-48 -129 -91 -278 -81 -278 8 0 19 20 26 45 l13 46 65
-3 65 -3 15 -42 c7 -24 18 -43 23 -43 14 0 13 6 -38 153 -37 108 -51 137 -66
137 -10 0 -20 -6 -22 -12z m49 -82 c14 -41 26 -77 26 -80 0 -3 -24 -6 -54 -6
l-54 0 26 80 c14 44 27 80 28 80 1 0 13 -33 28 -74z"/>
<path d="M2940 9415 c0 -8 7 -15 15 -15 8 0 15 7 15 15 0 8 -7 15 -15 15 -8 0
-15 -7 -15 -15z"/>
<path d="M6060 9415 c0 -8 7 -15 15 -15 8 0 15 7 15 15 0 8 -7 15 -15 15 -8 0
-15 -7 -15 -15z"/>
<path d="M1220 9380 c0 -23 -4 -30 -20 -30 -11 0 -20 -4 -20 -10 0 -5 9 -10
20 -10 18 0 20 -7 20 -79 0 -59 4 -84 16 -95 17 -18 79 -22 89 -6 4 6 -8 10
-27 10 -49 0 -58 14 -58 97 l0 73 46 0 c27 0 43 4 39 10 -3 6 -24 10 -46 10
-37 0 -39 2 -39 30 0 17 -4 30 -10 30 -5 0 -10 -13 -10 -30z"/>
<path d="M2770 9380 c0 -23 -4 -30 -20 -30 -11 0 -20 -4 -20 -10 0 -5 9 -10
20 -10 18 0 20 -7 20 -73 0 -92 15 -117 71 -117 21 0 39 5 39 10 0 6 -16 10
-35 10 -45 0 -57 23 -53 103 l3 62 43 3 c56 4 54 22 -3 22 -43 0 -45 1 -45 30
0 17 -4 30 -10 30 -5 0 -10 -13 -10 -30z"/>
<path d="M3620 9380 c0 -23 -4 -30 -20 -30 -11 0 -20 -4 -20 -10 0 -5 9 -10
20 -10 18 0 20 -7 20 -79 0 -59 4 -84 16 -95 17 -18 79 -22 89 -6 4 6 -8 10
-27 10 -49 0 -58 14 -58 97 l0 73 46 0 c27 0 43 4 39 10 -3 6 -24 10 -46 10
-37 0 -39 2 -39 30 0 17 -4 30 -10 30 -5 0 -10 -13 -10 -30z"/>
<path d="M5668 9404 c-5 -4 -8 -17 -8 -30 0 -14 -8 -24 -22 -29 -23 -7 -23 -8
-2 -12 19 -4 22 -12 26 -83 3 -43 10 -86 18 -94 14 -17 90 -23 90 -7 0 6 -17
11 -37 13 -32 3 -38 7 -45 36 -5 19 -8 55 -6 80 l3 47 43 3 c56 4 54 22 -2 22
-43 0 -45 1 -48 31 -2 17 -6 27 -10 23z"/>
<path d="M7520 9380 c0 -23 -4 -30 -20 -30 -11 0 -20 -4 -20 -10 0 -5 9 -10
20 -10 18 0 20 -7 20 -73 0 -92 15 -117 71 -117 21 0 39 5 39 10 0 6 -16 10
-35 10 -45 0 -57 23 -53 103 l3 62 43 3 c56 4 54 22 -3 22 -43 0 -45 1 -45 30
0 17 -4 30 -10 30 -5 0 -10 -13 -10 -30z"/>
<path d="M473 9330 c-42 -38 -42 -132 0 -170 25 -24 94 -27 123 -6 24 18 13
31 -14 17 -37 -20 -79 -13 -101 15 -12 15 -21 31 -21 35 0 5 36 9 81 9 l81 0
-7 33 c-11 54 -37 82 -81 85 -29 2 -45 -3 -61 -18z m101 -22 c9 -12 16 -31 16
-41 0 -16 -8 -18 -62 -15 -57 3 -63 5 -60 23 10 54 77 75 106 33z"/>
<path d="M813 9330 c-42 -38 -42 -132 0 -170 25 -24 94 -27 123 -6 24 18 13
31 -14 17 -37 -20 -79 -13 -101 15 -12 15 -21 31 -21 35 0 5 36 9 81 9 l81 0
-7 33 c-11 54 -37 82 -81 85 -29 2 -45 -3 -61 -18z m101 -22 c9 -12 16 -31 16
-41 0 -16 -8 -18 -62 -15 -57 3 -63 5 -60 23 10 54 77 75 106 33z"/>
<path d="M1043 9332 c-50 -38 -49 -145 2 -178 26 -17 96 -16 102 3 3 8 -8 10
-34 6 -45 -5 -70 10 -81 52 -20 71 29 130 89 108 23 -9 29 -9 29 2 0 29 -73
34 -107 7z"/>
<path d="M2593 9332 c-50 -38 -49 -145 2 -178 26 -17 96 -16 102 3 3 8 -8 10
-34 6 -45 -5 -70 10 -81 52 -20 71 29 130 89 108 23 -9 29 -9 29 2 0 29 -73
34 -107 7z"/>
<path d="M2950 9245 c0 -63 4 -105 10 -105 6 0 10 42 10 105 0 63 -4 105 -10
105 -6 0 -10 -42 -10 -105z"/>
<path d="M3079 9337 c-57 -44 -48 -173 13 -193 79 -25 128 14 128 102 0 45 -4
59 -25 79 -27 28 -88 34 -116 12z m98 -29 c31 -29 32 -99 3 -128 -29 -29 -74
-26 -99 6 -62 78 25 189 96 122z"/>
<path d="M3290 9245 c0 -63 4 -105 10 -105 6 0 10 34 10 83 0 80 1 84 25 95
39 18 73 15 85 -7 5 -11 10 -54 10 -95 0 -49 4 -76 11 -76 18 0 8 188 -11 200
-20 13 -77 13 -101 0 -13 -7 -19 -7 -19 0 0 5 -4 10 -10 10 -6 0 -10 -42 -10
-105z"/>
<path d="M3809 9337 c-57 -44 -48 -173 13 -193 79 -25 128 14 128 102 0 45 -4
59 -25 79 -27 28 -88 34 -116 12z m98 -29 c31 -29 32 -99 3 -128 -29 -29 -74
-26 -99 6 -62 78 25 189 96 122z"/>
<path d="M4112 9334 c-48 -33 -22 -77 61 -104 43 -13 56 -33 37 -55 -14 -17
-72 -20 -101 -5 -15 8 -19 7 -19 -4 0 -31 106 -38 133 -8 38 41 15 76 -66 102
-43 13 -56 33 -37 55 14 17 63 20 91 5 15 -8 19 -7 19 4 0 29 -81 36 -118 10z"/>
<path d="M4555 9325 c-21 -20 -25 -34 -25 -79 0 -88 49 -127 128 -102 61 20
70 149 13 193 -28 22 -89 16 -116 -12z m114 -21 c43 -54 12 -144 -50 -144 -44
0 -69 31 -69 85 0 80 74 116 119 59z"/>
<path d="M4760 9334 c0 -8 12 -55 27 -105 36 -120 50 -119 87 4 l28 92 28 -90
c38 -124 50 -123 89 3 35 111 35 112 21 112 -5 0 -22 -42 -38 -92 l-29 -93
-22 75 c-12 41 -25 83 -28 93 -2 10 -12 17 -21 15 -11 -2 -25 -33 -43 -93 -30
-101 -30 -101 -64 28 -16 61 -35 89 -35 51z"/>
<path d="M5445 9325 c-21 -20 -25 -34 -25 -80 0 -46 4 -60 25 -80 28 -29 98
-35 131 -11 24 18 13 31 -14 17 -48 -26 -122 1 -122 44 0 12 15 15 75 15 l75
0 0 28 c0 15 -9 42 -20 60 -17 28 -25 32 -60 32 -30 0 -47 -7 -65 -25z m103
-8 c6 -6 13 -24 17 -40 l7 -27 -66 0 c-72 0 -83 12 -50 58 17 25 74 31 92 9z"/>
<path d="M5848 9343 c-10 -2 -18 -11 -18 -18 0 -11 6 -12 26 -5 37 14 70 12
88 -6 28 -27 19 -41 -31 -49 -68 -9 -93 -28 -93 -68 0 -18 5 -38 12 -45 16
-16 90 -15 107 1 11 10 14 10 18 0 13 -36 23 -3 23 76 0 82 -2 91 -22 105 -21
15 -72 19 -110 9z m112 -127 c0 -28 -5 -36 -29 -46 -44 -18 -85 -10 -89 18 -6
40 18 55 96 61 19 1 22 -4 22 -33z"/>
<path d="M6070 9245 c0 -63 4 -105 10 -105 6 0 10 42 10 105 0 63 -4 105 -10
105 -6 0 -10 -42 -10 -105z"/>
<path d="M6302 9334 c-48 -33 -22 -77 61 -104 43 -13 56 -33 37 -55 -14 -17
-72 -20 -101 -5 -15 8 -19 7 -19 -4 0 -31 106 -38 133 -8 38 41 15 76 -66 102
-43 13 -56 33 -37 55 14 17 63 20 91 5 15 -8 19 -7 19 4 0 29 -81 36 -118 10z"/>
<path d="M6598 9343 c-10 -2 -18 -11 -18 -18 0 -11 6 -12 26 -5 56 21 104 7
104 -31 0 -12 -12 -19 -47 -24 -65 -9 -93 -28 -93 -65 0 -15 7 -36 16 -44 18
-18 76 -21 105 -6 13 7 19 7 19 0 0 -5 5 -10 10 -10 6 0 10 36 10 88 0 73 -3
92 -18 105 -18 16 -73 21 -114 10z m112 -126 c0 -26 -6 -36 -25 -45 -53 -24
-101 -6 -93 35 3 18 55 41 96 42 18 1 22 -4 22 -32z"/>
<path d="M7069 9337 c-57 -44 -48 -173 13 -193 79 -25 128 14 128 102 0 45 -4
59 -25 79 -27 28 -88 34 -116 12z m98 -29 c31 -29 32 -99 3 -128 -29 -29 -74
-26 -99 6 -62 78 25 189 96 122z"/>
<path d="M7278 9344 c-15 -15 -9 -158 8 -182 16 -24 75 -31 104 -12 9 6 17 5
22 -3 18 -29 29 13 26 104 -4 114 -22 122 -26 12 -3 -87 -13 -103 -68 -103
-18 0 -36 6 -41 13 -4 6 -10 50 -13 95 -3 46 -8 80 -12 76z"/>
<path d="M16852 9248 c-17 -17 -17 -239 0 -256 8 -8 51 -12 128 -12 77 0 120
4 128 12 8 8 12 51 12 128 0 77 -4 120 -12 128 -8 8 -51 12 -128 12 -77 0
-120 -4 -128 -12z"/>
<path d="M17261 9138 c-13 -40 -26 -79 -28 -85 -3 -7 -1 -13 5 -13 5 0 13 11
16 25 5 21 12 25 46 25 34 0 41 -4 46 -25 3 -14 10 -25 15 -25 12 0 11 5 -19
90 -36 100 -51 101 -81 8z m57 13 c16 -52 16 -51 -18 -51 -16 0 -30 3 -30 6 0
17 24 84 30 84 4 0 12 -17 18 -39z"/>
<path d="M17411 9123 c1 -58 4 -76 8 -53 5 31 10 35 39 38 21 2 38 12 48 28
15 22 15 26 0 49 -13 20 -25 25 -56 25 l-40 0 1 -87z m70 67 c39 -21 16 -70
-33 -70 -26 0 -28 3 -28 40 0 34 3 40 21 40 11 0 29 -5 40 -10z"/>
<path d="M17550 9125 c0 -50 4 -85 10 -85 6 0 10 16 10 35 0 33 2 35 33 35 40
0 57 15 57 50 0 37 -18 50 -67 50 l-43 0 0 -85z m81 65 c39 -21 16 -70 -33
-70 -26 0 -28 3 -28 40 0 34 3 40 21 40 11 0 29 -5 40 -10z"/>
<path d="M17700 9125 l0 -85 46 0 c27 0 43 4 39 10 -3 6 -19 10 -36 10 l-29 0
0 75 c0 43 -4 75 -10 75 -6 0 -10 -35 -10 -85z"/>
<path d="M17820 9125 l0 -85 50 0 c28 0 50 5 50 10 0 6 -18 10 -40 10 -38 0
-40 2 -40 29 0 28 3 30 43 34 l42 4 -42 1 c-42 2 -43 3 -43 36 0 34 1 35 43
39 40 3 40 4 -10 5 l-53 2 0 -85z"/>
<path d="M390 8730 c0 -93 4 -150 10 -150 6 0 10 33 10 80 0 79 0 80 31 95 17
9 42 15 57 13 27 -3 27 -3 30 -95 4 -122 22 -121 22 1 0 70 -4 97 -15 106 -15
12 -75 10 -107 -4 -16 -7 -18 -2 -18 48 0 31 -4 56 -10 56 -6 0 -10 -57 -10
-150z"/>
<path d="M1180 8730 c0 -93 4 -150 10 -150 6 0 10 34 10 83 0 80 1 84 25 95
39 18 73 15 85 -7 5 -11 10 -54 10 -95 0 -44 4 -76 10 -76 17 0 12 162 -6 188
-17 24 -70 30 -105 12 -18 -10 -19 -7 -19 45 0 30 -4 55 -10 55 -6 0 -10 -57
-10 -150z"/>
<path d="M230 8820 c0 -23 -4 -30 -20 -30 -11 0 -20 -4 -20 -10 0 -5 9 -10 20
-10 18 0 20 -7 20 -79 0 -59 4 -84 16 -95 17 -18 79 -22 89 -6 4 6 -8 10 -27
10 -49 0 -58 14 -58 97 l0 73 46 0 c27 0 43 4 39 10 -3 6 -24 10 -46 10 -37 0
-39 2 -39 30 0 17 -4 30 -10 30 -5 0 -10 -13 -10 -30z"/>
<path d="M17443 8809 c-29 -11 -43 -39 -43 -88 0 -49 27 -81 67 -81 14 0 35
-7 45 -17 19 -17 26 -5 7 14 -8 8 -8 17 1 33 7 13 12 41 12 63 -1 59 -41 94
-89 76z m61 -31 c32 -45 7 -128 -37 -128 -42 0 -69 96 -38 134 19 23 57 20 75
-6z"/>
<path d="M17250 8725 l0 -85 36 0 c19 0 44 5 55 10 23 13 25 55 3 68 -14 8
-14 10 0 21 39 33 7 71 -58 71 l-36 0 0 -85z m78 66 c22 -14 9 -44 -22 -52
-38 -10 -46 -5 -46 32 0 25 4 29 28 29 15 0 33 -4 40 -9z m6 -86 c24 -25 9
-45 -35 -45 -37 0 -39 2 -39 30 0 27 3 30 29 30 16 0 36 -7 45 -15z"/>
<path d="M646 8771 c-40 -44 -40 -128 0 -172 27 -30 144 -19 144 14 0 5 -8 6
-17 1 -10 -4 -35 -9 -56 -12 -42 -5 -77 17 -77 50 0 16 9 18 75 18 66 0 75 2
75 19 0 32 -22 81 -40 91 -31 16 -85 12 -104 -9z m96 -18 c9 -10 19 -28 22
-40 7 -22 5 -23 -58 -23 -57 0 -66 3 -66 18 0 53 69 83 102 45z"/>
<path d="M940 8645 c0 -90 4 -145 10 -145 6 0 10 18 10 40 l0 40 46 0 c37 0
51 5 75 29 24 25 29 37 29 81 0 41 -5 56 -25 75 -26 27 -72 33 -106 15 -13 -7
-19 -7 -19 0 0 5 -4 10 -10 10 -6 0 -10 -55 -10 -145z m129 99 c49 -62 8 -148
-67 -142 l-37 3 -3 70 c-2 57 0 72 14 82 30 22 70 16 93 -13z"/>
<path d="M1425 8765 c-21 -20 -25 -34 -25 -79 0 -88 49 -127 128 -102 61 20
70 149 13 193 -28 22 -89 16 -116 -12z m114 -21 c43 -54 12 -144 -50 -144 -44
0 -69 31 -69 85 0 80 74 116 119 59z"/>
<path d="M1640 8685 c0 -63 4 -105 10 -105 6 0 10 33 10 80 0 79 0 80 31 95
17 9 42 15 57 13 27 -3 27 -3 30 -95 1 -51 7 -93 12 -93 15 0 13 183 -2 198
-15 15 -73 16 -101 1 -16 -9 -22 -9 -25 0 -2 6 -8 11 -13 11 -5 0 -9 -47 -9
-105z"/>
<path d="M1895 8765 c-21 -20 -25 -34 -25 -80 0 -46 4 -60 25 -80 28 -29 98
-35 131 -11 24 18 13 31 -14 17 -48 -26 -122 1 -122 44 0 12 15 15 75 15 l75
0 0 28 c0 15 -9 42 -20 60 -17 28 -25 32 -60 32 -30 0 -47 -7 -65 -25z m103
-8 c6 -6 13 -24 17 -40 l7 -27 -66 0 c-72 0 -83 12 -50 58 17 25 74 31 92 9z"/>
<path d="M16852 8448 c-17 -17 -17 -239 0 -256 8 -8 51 -12 128 -12 77 0 120
4 128 12 8 8 12 51 12 128 0 77 -4 120 -12 128 -8 8 -51 12 -128 12 -77 0
-120 -4 -128 -12z"/>
<path d="M17250 8325 l0 -85 51 0 c31 0 48 4 44 10 -3 6 -24 10 -46 10 -37 0
-39 2 -39 30 0 28 2 30 43 31 l42 2 -40 6 c-36 5 -40 9 -43 38 -3 31 -2 32 45
36 l48 3 -52 2 -53 2 0 -85z"/>
<path d="M17390 8325 c0 -104 18 -114 22 -12 l3 72 38 -72 c52 -100 67 -97 67
12 0 104 -18 114 -22 13 l-3 -73 -38 73 c-51 99 -67 96 -67 -13z"/>
<path d="M17570 8325 l0 -85 50 0 c28 0 50 5 50 10 0 6 -20 10 -45 10 -43 0
-45 1 -45 30 0 29 2 30 48 32 l47 1 -45 6 c-42 6 -45 8 -48 38 -3 31 -2 32 45
36 l48 3 -52 2 -53 2 0 -85z"/>
<path d="M17710 8325 c0 -50 4 -85 10 -85 6 0 10 16 10 35 0 22 5 35 13 35 7
0 28 -16 47 -35 19 -19 38 -35 44 -35 5 0 -5 15 -23 34 -33 34 -33 34 -12 45
24 13 29 59 9 79 -7 7 -31 12 -55 12 l-43 0 0 -85z m81 65 c40 -22 12 -70 -40
-70 -18 0 -21 6 -21 40 0 34 3 40 21 40 11 0 29 -5 40 -10z"/>
<path d="M17886 8388 c-9 -12 -16 -42 -16 -65 0 -57 27 -85 78 -81 36 3 37 4
40 46 3 40 2 42 -25 41 -24 -2 -24 -2 -5 -6 17 -3 22 -11 22 -33 0 -33 -28
-47 -59 -30 -72 38 -43 149 35 137 20 -4 32 -2 29 4 -4 5 -24 9 -45 9 -29 0
-43 -6 -54 -22z"/>
<path d="M18054 8325 c0 -49 1 -71 3 -48 2 23 2 64 0 90 -2 26 -3 8 -3 -42z"/>
<path d="M18153 8401 l47 -6 -45 -67 c-25 -37 -45 -72 -45 -78 0 -6 24 -10 55
-10 66 0 74 18 10 22 l-45 3 45 64 c25 36 45 68 45 73 0 4 -26 7 -57 6 l-58
-1 48 -6z"/>
<path d="M18260 8325 l0 -85 50 0 c28 0 50 5 50 10 0 6 -20 10 -45 10 -43 0
-45 1 -45 30 0 29 2 30 48 32 l47 1 -45 6 c-42 6 -45 8 -48 38 -3 31 -2 32 45
36 l48 3 -52 2 -53 2 0 -85z"/>
<path d="M18400 8325 c0 -50 4 -85 10 -85 6 0 10 16 10 35 0 22 5 35 13 35 7
0 28 -16 47 -35 19 -19 38 -35 44 -35 5 0 -5 15 -23 34 -33 34 -33 34 -12 45
24 13 29 59 9 79 -7 7 -31 12 -55 12 l-43 0 0 -85z m81 65 c40 -22 12 -70 -40
-70 -18 0 -21 6 -21 40 0 34 3 40 21 40 11 0 29 -5 40 -10z"/>
<path d="M2340 8189 c-36 -4 -110 -18 -165 -30 -833 -177 -1459 -843 -1592
-1694 -23 -150 -23 -440 0 -591 40 -258 130 -516 257 -734 l32 -55 -38 38
c-129 131 -321 109 -423 -48 -23 -36 -26 -50 -26 -130 0 -81 3 -94 27 -132 38
-57 65 -81 123 -109 73 -35 145 -33 224 7 96 48 144 127 144 234 0 33 -8 78
-16 100 -16 38 -15 39 0 16 358 -506 795 -791 1378 -897 167 -30 585 -28 673
3 10 4 14 3 11 -1 -3 -3 -33 -13 -65 -21 -32 -9 -91 -31 -131 -50 -277 -130
-459 -383 -493 -686 -17 -150 3 -267 85 -484 5 -14 2 -13 -11 6 -115 158 -285
278 -470 331 -114 32 -334 33 -447 0 -185 -53 -351 -170 -462 -327 -56 -78
-86 -141 -121 -245 -25 -77 -28 -99 -28 -235 -1 -128 2 -162 22 -229 82 -284
289 -494 577 -586 99 -31 290 -39 406 -16 98 20 210 66 294 121 72 47 190 163
230 226 17 26 36 55 43 65 12 18 13 18 6 -1 -46 -131 -56 -185 -57 -290 -1
-299 160 -543 443 -667 43 -19 54 -27 32 -22 -83 15 -182 -28 -232 -102 -18
-26 -25 -54 -28 -100 -12 -191 184 -308 339 -204 65 44 92 90 97 166 6 87 -28
159 -96 205 -41 27 -43 31 -17 24 162 -37 354 -16 495 55 238 120 390 361 394
627 0 51 2 93 3 93 1 0 7 -19 13 -42 33 -133 102 -250 205 -346 226 -211 579
-242 836 -74 256 168 373 487 285 777 -22 71 -20 77 10 25 44 -76 134 -178
215 -244 213 -170 479 -233 772 -182 27 5 25 3 -9 -9 -213 -79 -231 -372 -30
-478 58 -30 174 -30 231 0 155 83 190 275 74 407 -45 51 -122 86 -192 87 -42
0 -41 0 33 27 330 119 559 411 600 764 23 195 -33 441 -132 581 -36 51 -13 37
29 -18 98 -126 301 -254 473 -297 120 -30 302 -30 422 0 336 83 591 346 664
684 20 93 20 271 1 363 -73 345 -331 605 -685 692 -101 25 -293 22 -402 -6
-310 -78 -551 -313 -646 -626 -24 -80 -27 -106 -27 -240 -1 -135 2 -159 27
-239 15 -50 43 -121 61 -160 19 -38 35 -72 35 -75 0 -2 -25 23 -55 56 -105
116 -248 205 -415 258 -105 33 -287 45 -405 26 -354 -57 -634 -311 -737 -668
-19 -66 -23 -102 -23 -233 0 -164 10 -219 59 -342 14 -33 23 -58 21 -56 -2 2
-26 37 -53 78 -194 296 -569 394 -892 233 -56 -28 -97 -59 -160 -123 -131
-130 -195 -272 -207 -459 l-6 -94 -14 54 c-29 114 -114 262 -194 335 -118 108
-302 194 -413 194 -55 0 -19 11 70 20 212 24 385 109 531 263 88 93 153 202
195 327 31 91 32 102 33 255 0 137 -3 171 -23 238 -90 311 -350 546 -672 607
-30 6 -104 11 -165 11 l-110 1 110 28 c726 183 1290 753 1476 1490 l24 95 6
-140 c8 -169 31 -270 94 -402 156 -330 457 -542 824 -583 237 -26 498 43 694
184 72 52 188 169 240 242 128 180 195 411 184 639 -34 687 -716 1141 -1367
910 -304 -109 -536 -359 -635 -685 -25 -83 -26 -84 -20 -30 46 474 -43 899
-269 1285 -312 529 -861 894 -1475 979 -120 17 -417 20 -531 5z m46 -1841 c37
-111 37 -108 20 -108 -8 0 -18 9 -21 20 -5 15 -15 20 -42 20 -26 0 -36 -5 -40
-20 -3 -11 -12 -20 -19 -20 -8 0 -14 1 -14 3 0 3 45 137 55 165 12 32 39 5 61
-60z m171 46 c30 -41 -3 -94 -57 -94 -27 0 -30 -3 -30 -30 0 -16 -4 -30 -10
-30 -6 0 -10 37 -10 91 l0 92 47 -6 c29 -3 52 -12 60 -23z m144 5 c14 -22 10
-66 -7 -83 -8 -9 -29 -16 -45 -16 -26 0 -29 -3 -29 -30 0 -20 -5 -30 -15 -30
-12 0 -15 17 -15 91 l0 92 51 -5 c28 -3 55 -12 60 -19z m69 -59 l0 -80 35 0
c19 0 35 -4 35 -10 0 -5 -22 -10 -50 -10 l-50 0 0 90 c0 73 3 90 15 90 12 0
15 -16 15 -80z m203 65 c1 -5 -17 -11 -40 -13 -38 -3 -43 -6 -43 -28 0 -21 4
-24 40 -24 29 0 40 -4 40 -15 0 -11 -11 -15 -40 -15 -36 0 -40 -2 -40 -25 0
-23 4 -25 45 -25 25 0 45 -4 45 -10 0 -6 -27 -10 -60 -10 l-60 0 0 90 0 91 55
-3 c30 -2 56 -7 58 -13z m-1123 -367 c0 -31 2 -33 37 -33 l38 0 3 -62 c2 -39
-1 -63 -8 -63 -5 0 -10 22 -10 49 0 54 -9 66 -40 56 -16 -5 -20 -15 -20 -56 0
-37 -4 -49 -15 -49 -12 0 -15 16 -15 88 0 49 3 92 7 95 14 15 23 5 23 -25z
m-220 -68 c0 -53 -4 -90 -10 -90 -6 0 -10 37 -10 90 0 53 4 90 10 90 6 0 10
-37 10 -90z m148 74 c49 -34 15 -104 -50 -104 -24 0 -28 -4 -28 -30 0 -16 -4
-30 -10 -30 -6 0 -10 37 -10 90 l0 90 38 0 c21 0 48 -7 60 -16z m732 -64 c0
-73 2 -80 20 -80 11 0 20 -4 20 -10 0 -6 -27 -10 -60 -10 -33 0 -60 4 -60 10
0 6 11 10 25 10 24 0 25 3 25 60 0 55 -10 75 -25 50 -7 -11 -25 -4 -25 10 0
11 49 39 68 40 8 0 12 -22 12 -80z m140 0 c0 -79 0 -80 25 -80 14 0 25 -4 25
-10 0 -6 -28 -10 -65 -10 -37 0 -65 4 -65 10 0 6 11 10 25 10 24 0 25 3 25 60
0 58 -1 60 -20 50 -29 -15 -27 13 3 33 42 30 47 23 47 -63z m237 54 c30 -41
-3 -94 -57 -94 -27 0 -30 -3 -30 -30 0 -16 -4 -30 -10 -30 -6 0 -10 37 -10 91
l0 92 47 -6 c29 -3 52 -12 60 -23z m395 -46 l24 -72 25 70 c19 54 28 69 44 69
18 0 20 -8 23 -87 2 -73 0 -88 -12 -88 -11 0 -16 15 -18 63 l-3 62 -21 -60
c-29 -83 -46 -83 -76 2 l-23 68 -3 -67 c-4 -101 -22 -83 -22 22 0 82 2 90 19
90 15 0 25 -16 43 -72z m-1218 0 c22 -31 20 -74 -4 -98 -24 -24 -48 -25 -78
-4 -24 17 -30 70 -12 105 15 28 74 26 94 -3z m144 -45 c2 -39 -1 -63 -8 -63
-5 0 -10 22 -10 49 0 54 -9 66 -40 56 -16 -5 -20 -15 -20 -56 0 -37 -4 -49
-15 -49 -12 0 -15 14 -15 64 l0 64 53 -1 52 -2 3 -62z m129 55 c6 -7 13 -25
17 -40 6 -27 5 -28 -40 -28 -32 0 -44 -4 -41 -12 2 -8 19 -13 41 -12 41 1 50
-20 12 -30 -31 -8 -71 7 -80 29 -11 30 -6 73 10 89 19 19 68 21 81 4z m673 2
c0 -5 -12 -15 -27 -22 -23 -11 -29 -21 -31 -56 -2 -28 -8 -42 -18 -42 -11 0
-14 15 -14 63 l0 62 45 2 c25 1 45 -2 45 -7z m111 -6 c22 -26 16 -84 -10 -105
-30 -25 -53 -24 -76 1 -22 24 -25 81 -6 104 7 9 28 16 46 16 18 0 39 -7 46
-16z m409 -3 c5 -11 10 -40 10 -64 0 -44 0 -45 -39 -51 -47 -7 -67 -1 -74 24
-8 30 20 60 54 60 20 0 29 4 26 13 -2 7 -19 11 -41 10 -34 -2 -45 5 -29 20 3
4 23 7 44 7 28 0 41 -5 49 -19z m70 -3 l17 -22 12 22 c6 12 18 22 26 22 20 0
19 -7 -4 -39 -19 -26 -19 -27 0 -51 23 -30 24 -40 4 -40 -8 0 -20 10 -26 22
l-12 22 -17 -22 c-10 -12 -26 -22 -35 -22 -13 0 -12 6 9 33 25 32 25 32 6 57
-11 14 -20 28 -20 33 0 15 22 6 40 -15z m1803 -151 c15 -46 27 -86 27 -90 0
-16 -28 -5 -33 13 -4 15 -14 20 -40 20 -27 0 -37 -5 -42 -20 -3 -11 -12 -20
-20 -20 -10 0 -6 22 17 90 39 119 54 120 91 7z m155 67 c49 -34 15 -104 -50
-104 -24 0 -28 -4 -28 -30 0 -16 -4 -30 -10 -30 -6 0 -10 37 -10 90 l0 90 38
0 c21 0 48 -7 60 -16z m159 -10 c30 -41 -3 -94 -57 -94 -27 0 -30 -3 -30 -30
0 -16 -4 -30 -10 -30 -6 0 -10 37 -10 91 l0 92 47 -6 c29 -3 52 -12 60 -23z
m63 -54 l0 -80 35 0 c19 0 35 -4 35 -10 0 -5 -22 -10 -50 -10 l-50 0 0 90 c0
73 3 90 15 90 12 0 15 -16 15 -80z m203 65 c1 -5 -17 -11 -40 -13 -38 -3 -43
-6 -43 -28 0 -21 4 -24 40 -24 29 0 40 -4 40 -15 0 -11 -11 -15 -40 -15 -36 0
-40 -2 -40 -25 0 -23 4 -25 45 -25 25 0 45 -4 45 -10 0 -6 -27 -10 -60 -10
l-60 0 0 90 0 91 55 -3 c30 -2 56 -7 58 -13z m-1381 -107 c-6 -6 -7 0 -4 19 5
21 7 23 10 9 2 -10 0 -22 -6 -28z m746 -261 c3 -23 8 -27 37 -27 39 0 45 -11
45 -81 0 -37 -4 -49 -15 -49 -11 0 -15 12 -15 49 0 52 -8 65 -34 55 -12 -4
-16 -20 -16 -55 0 -37 -4 -49 -15 -49 -12 0 -15 17 -15 96 0 72 3 95 13 92 6
-3 13 -17 15 -31z m-218 -67 c0 -53 -4 -90 -10 -90 -6 0 -10 37 -10 90 0 53 4
90 10 90 6 0 10 -37 10 -90z m870 10 c0 -79 0 -80 25 -80 14 0 25 -4 25 -10 0
-6 -28 -10 -65 -10 -37 0 -65 4 -65 10 0 6 14 10 30 10 l30 0 0 60 c0 64 -1
66 -31 50 -15 -8 -19 -7 -19 4 0 14 43 45 63 46 4 0 7 -36 7 -80z m175 56 c20
-30 11 -52 -40 -90 -19 -15 -35 -31 -35 -37 0 -5 20 -9 45 -9 25 0 45 -4 45
-10 0 -6 -29 -10 -66 -10 -63 0 -65 1 -59 23 4 12 27 40 52 63 46 41 50 64 12
64 -11 0 -29 -5 -40 -10 -15 -8 -19 -7 -19 4 0 40 81 49 105 12z m-901 -42
c26 -26 20 -79 -11 -104 -15 -12 -35 -19 -45 -17 -14 4 -18 -1 -18 -19 0 -15
-6 -24 -15 -24 -12 0 -15 17 -15 90 l0 90 44 0 c27 0 51 -6 60 -16z m286 -3
c18 -35 12 -88 -12 -105 -30 -21 -54 -20 -78 4 -24 24 -26 67 -4 98 20 29 79
31 94 3z m142 7 c4 -7 8 -37 8 -65 0 -41 -4 -53 -15 -53 -11 0 -15 12 -15 49
0 52 -8 65 -34 55 -12 -4 -16 -20 -16 -55 0 -37 -4 -49 -15 -49 -12 0 -15 14
-15 63 l0 64 47 2 c28 1 50 -4 55 -11z m132 -4 c9 -8 16 -26 16 -40 0 -22 -4
-24 -46 -24 -41 0 -45 -2 -33 -16 9 -11 22 -14 46 -9 40 7 45 -11 7 -26 -34
-12 -60 -4 -80 27 -17 25 -13 66 8 91 15 18 63 16 82 -3z m1320 -1680 c15 -47
25 -88 23 -91 -9 -8 -27 7 -27 23 0 10 -12 14 -39 14 -30 0 -40 -4 -44 -20 -3
-11 -12 -20 -20 -20 -13 0 -10 16 15 90 40 119 54 120 92 4z m154 70 c45 -31
17 -104 -40 -104 -24 0 -28 -4 -28 -30 0 -20 -5 -30 -15 -30 -12 0 -15 17 -15
90 l0 90 38 0 c21 0 48 -7 60 -16z m150 0 c49 -34 15 -104 -50 -104 -24 0 -28
-4 -28 -30 0 -16 -4 -30 -10 -30 -6 0 -10 37 -10 90 l0 90 38 0 c21 0 48 -7
60 -16z m72 -64 l0 -80 35 0 c19 0 35 -4 35 -10 0 -5 -20 -10 -45 -10 l-45 0
0 90 c0 53 4 90 10 90 6 0 10 -33 10 -80z m210 65 c0 -11 -12 -15 -45 -15 -41
0 -45 -2 -45 -24 0 -22 5 -25 43 -28 23 -2 42 -7 42 -13 0 -5 -19 -11 -42 -13
-38 -3 -43 -6 -43 -28 0 -22 4 -24 45 -24 25 0 45 -4 45 -10 0 -5 -25 -10 -55
-10 l-55 0 0 90 0 90 55 0 c42 0 55 -3 55 -15z m-4856 -411 c15 -47 25 -88 23
-91 -9 -8 -27 7 -27 23 0 10 -12 14 -39 14 -30 0 -40 -4 -44 -20 -3 -11 -12
-20 -20 -20 -13 0 -10 16 15 90 40 119 54 120 92 4z m154 70 c45 -31 17 -104
-40 -104 -24 0 -28 -4 -28 -30 0 -20 -5 -30 -15 -30 -12 0 -15 17 -15 90 l0
90 38 0 c21 0 48 -7 60 -16z m150 0 c49 -34 15 -104 -50 -104 -24 0 -28 -4
-28 -30 0 -16 -4 -30 -10 -30 -6 0 -10 37 -10 90 l0 90 38 0 c21 0 48 -7 60
-16z m72 -64 l0 -80 35 0 c19 0 35 -4 35 -10 0 -5 -20 -10 -45 -10 l-45 0 0
90 c0 53 4 90 10 90 6 0 10 -33 10 -80z m210 65 c0 -11 -12 -15 -45 -15 -41 0
-45 -2 -45 -24 0 -22 5 -25 43 -28 23 -2 42 -7 42 -13 0 -5 -19 -11 -42 -13
-38 -3 -43 -6 -43 -28 0 -22 4 -24 45 -24 25 0 45 -4 45 -10 0 -5 -25 -10 -55
-10 l-55 0 0 90 0 90 55 0 c42 0 55 -3 55 -15z m3620 -27 c0 -31 2 -33 37 -33
l38 0 3 -62 c2 -39 -1 -63 -8 -63 -5 0 -10 22 -10 49 0 54 -9 66 -40 56 -16
-5 -20 -15 -20 -56 0 -37 -4 -49 -15 -49 -12 0 -15 16 -15 88 0 49 3 92 7 95
14 15 23 5 23 -25z m-220 -68 c0 -53 -4 -90 -10 -90 -6 0 -10 37 -10 90 0 53
4 90 10 90 6 0 10 -37 10 -90z m148 74 c49 -34 15 -104 -50 -104 -24 0 -28 -4
-28 -30 0 -16 -4 -30 -10 -30 -6 0 -10 37 -10 90 l0 90 38 0 c21 0 48 -7 60
-16z m685 -14 c10 -16 21 -30 25 -30 4 0 16 14 27 30 11 16 26 30 33 30 17 0
16 -5 -15 -51 -29 -44 -29 -39 15 -106 24 -37 -12 -30 -39 8 l-22 31 -19 -31
c-11 -17 -26 -31 -34 -31 -19 0 -18 4 12 49 l26 40 -26 38 c-29 42 -32 53 -13
53 7 0 21 -13 30 -30z m228 9 c16 -25 10 -68 -11 -81 -19 -12 -19 -14 12 -45
28 -29 30 -33 12 -33 -11 0 -33 14 -49 30 -16 17 -32 30 -37 30 -4 0 -8 -13
-8 -30 0 -20 -5 -30 -15 -30 -12 0 -15 17 -15 91 l0 92 51 -5 c28 -3 55 -12
60 -19z m-627 -51 c22 -31 20 -74 -4 -98 -24 -24 -48 -25 -78 -4 -24 17 -30
70 -12 105 15 28 74 26 94 -3z m144 -45 c2 -39 -1 -63 -8 -63 -5 0 -10 22 -10
49 0 54 -9 66 -40 56 -16 -5 -20 -15 -20 -56 0 -37 -4 -49 -15 -49 -12 0 -15
14 -15 64 l0 64 53 -1 52 -2 3 -62z m129 55 c6 -7 13 -25 17 -40 6 -27 5 -28
-40 -28 -32 0 -44 -4 -41 -12 2 -8 19 -13 41 -12 41 1 50 -20 12 -30 -31 -8
-71 7 -80 29 -11 30 -6 73 10 89 19 19 68 21 81 4z m-4747 -300 c0 -31 2 -33
37 -33 l38 0 3 -62 c2 -39 -1 -63 -8 -63 -5 0 -10 22 -10 49 0 54 -9 66 -40
56 -16 -5 -20 -15 -20 -56 0 -37 -4 -49 -15 -49 -12 0 -15 16 -15 88 0 49 3
92 7 95 14 15 23 5 23 -25z m-220 -68 c0 -53 -4 -90 -10 -90 -6 0 -10 37 -10
90 0 53 4 90 10 90 6 0 10 -37 10 -90z m148 74 c49 -34 15 -104 -50 -104 -24
0 -28 -4 -28 -30 0 -16 -4 -30 -10 -30 -6 0 -10 37 -10 90 l0 90 38 0 c21 0
48 -7 60 -16z m732 -64 c0 -73 2 -80 20 -80 11 0 20 -4 20 -10 0 -6 -27 -10
-60 -10 -33 0 -60 4 -60 10 0 6 11 10 25 10 24 0 25 3 25 60 0 55 -10 75 -25
50 -7 -11 -25 -4 -25 10 0 11 49 39 68 40 8 0 12 -22 12 -80z m140 0 c0 -79 0
-80 25 -80 14 0 25 -4 25 -10 0 -6 -28 -10 -65 -10 -37 0 -65 4 -65 10 0 6 11
10 25 10 24 0 25 3 25 60 0 58 -1 60 -20 50 -29 -15 -27 13 3 33 42 30 47 23
47 -63z m-586 8 c22 -31 20 -74 -4 -98 -24 -24 -48 -25 -78 -4 -24 17 -30 70
-12 105 15 28 74 26 94 -3z m144 -45 c2 -39 -1 -63 -8 -63 -5 0 -10 22 -10 49
0 54 -9 66 -40 56 -16 -5 -20 -15 -20 -56 0 -37 -4 -49 -15 -49 -12 0 -15 14
-15 64 l0 64 53 -1 52 -2 3 -62z m129 55 c6 -7 13 -25 17 -40 6 -27 5 -28 -40
-28 -32 0 -44 -4 -41 -12 2 -8 19 -13 41 -12 41 1 50 -20 12 -30 -31 -8 -71 7
-80 29 -11 30 -6 73 10 89 19 19 68 21 81 4z m2367 -364 c15 -47 25 -88 23
-91 -9 -8 -27 7 -27 23 0 10 -12 14 -39 14 -30 0 -40 -4 -44 -20 -3 -11 -12
-20 -20 -20 -13 0 -10 16 15 90 40 119 54 120 92 4z m154 70 c45 -31 17 -104
-40 -104 -24 0 -28 -4 -28 -30 0 -20 -5 -30 -15 -30 -12 0 -15 17 -15 90 l0
90 38 0 c21 0 48 -7 60 -16z m150 0 c49 -34 15 -104 -50 -104 -24 0 -28 -4
-28 -30 0 -16 -4 -30 -10 -30 -6 0 -10 37 -10 90 l0 90 38 0 c21 0 48 -7 60
-16z m72 -64 l0 -80 35 0 c19 0 35 -4 35 -10 0 -5 -20 -10 -45 -10 l-45 0 0
90 c0 53 4 90 10 90 6 0 10 -33 10 -80z m210 65 c0 -11 -12 -15 -45 -15 -41 0
-45 -2 -45 -24 0 -22 5 -25 43 -28 23 -2 42 -7 42 -13 0 -5 -19 -11 -42 -13
-38 -3 -43 -6 -43 -28 0 -22 4 -24 45 -24 25 0 45 -4 45 -10 0 -5 -25 -10 -55
-10 l-55 0 0 90 0 90 55 0 c42 0 55 -3 55 -15z m-3717 -173 c111 -95 249 -162
397 -192 l85 -17 -60 -7 c-206 -23 -401 -136 -512 -295 -26 -36 -50 -70 -54
-75 -4 -4 9 39 29 95 37 104 37 105 37 269 0 164 0 165 -36 265 -20 55 -40
109 -44 120 -5 11 15 -9 44 -45 28 -36 80 -89 114 -118z m-1125 -82 c23 -68
27 -90 17 -90 -8 0 -17 9 -20 20 -5 15 -15 20 -42 20 -26 0 -36 -5 -40 -20 -5
-18 -33 -29 -33 -13 0 4 12 44 27 90 37 113 52 112 91 -7z m163 69 c14 -22 10
-66 -7 -83 -8 -9 -29 -16 -45 -16 -26 0 -29 -3 -29 -30 0 -20 -5 -30 -15 -30
-12 0 -15 17 -15 91 l0 92 51 -5 c28 -3 55 -12 60 -19z m137 5 c45 -31 17
-104 -40 -104 -24 0 -28 -4 -28 -30 0 -20 -5 -30 -15 -30 -12 0 -15 17 -15 90
l0 90 38 0 c21 0 48 -7 60 -16z m72 -64 l0 -80 35 0 c19 0 35 -4 35 -10 0 -5
-20 -10 -45 -10 l-45 0 0 90 c0 53 4 90 10 90 6 0 10 -33 10 -80z m210 65 c0
-11 -12 -15 -45 -15 -41 0 -45 -2 -45 -25 0 -23 4 -25 46 -25 59 0 55 -24 -4
-28 -37 -3 -42 -6 -42 -28 0 -22 4 -24 45 -24 25 0 45 -4 45 -10 0 -5 -25 -10
-55 -10 l-55 0 0 90 0 90 55 0 c42 0 55 -3 55 -15z m3620 -187 c0 -31 2 -33
37 -33 l38 0 3 -62 c2 -39 -1 -63 -8 -63 -5 0 -10 22 -10 49 0 54 -9 66 -40
56 -16 -5 -20 -15 -20 -56 0 -37 -4 -49 -15 -49 -12 0 -15 16 -15 88 0 49 3
92 7 95 14 15 23 5 23 -25z m-220 -68 c0 -53 -4 -90 -10 -90 -6 0 -10 37 -10
90 0 53 4 90 10 90 6 0 10 -37 10 -90z m148 74 c49 -34 15 -104 -50 -104 -24
0 -28 -4 -28 -30 0 -16 -4 -30 -10 -30 -6 0 -10 37 -10 90 l0 90 38 0 c21 0
48 -7 60 -16z m732 -64 c0 -73 2 -80 20 -80 11 0 20 -4 20 -10 0 -6 -27 -10
-60 -10 -33 0 -60 4 -60 10 0 6 11 10 25 10 24 0 25 3 25 60 0 55 -10 75 -25
50 -7 -11 -25 -4 -25 10 0 11 49 39 68 40 8 0 12 -22 12 -80z m140 0 c0 -79 0
-80 25 -80 14 0 25 -4 25 -10 0 -6 -28 -10 -65 -10 -37 0 -65 4 -65 10 0 6 11
10 25 10 24 0 25 3 25 60 0 58 -1 60 -20 50 -29 -15 -27 13 3 33 42 30 47 23
47 -63z m-3353 44 c-3 -3 -12 -4 -19 -1 -8 3 -5 6 6 6 11 1 17 -2 13 -5z
m2767 -36 c22 -31 20 -74 -4 -98 -24 -24 -48 -25 -78 -4 -24 17 -30 70 -12
105 15 28 74 26 94 -3z m144 -45 c2 -39 -1 -63 -8 -63 -5 0 -10 22 -10 49 0
54 -9 66 -40 56 -16 -5 -20 -15 -20 -56 0 -37 -4 -49 -15 -49 -12 0 -15 14
-15 64 l0 64 53 -1 52 -2 3 -62z m129 55 c6 -7 13 -25 17 -40 6 -27 5 -28 -40
-28 -32 0 -44 -4 -41 -12 2 -8 19 -13 41 -12 41 1 50 -20 12 -30 -31 -8 -71 7
-80 29 -11 30 -6 73 10 89 19 19 68 21 81 4z m-4747 -140 c0 -31 2 -33 37 -33
l38 0 3 -62 c2 -39 -1 -63 -8 -63 -5 0 -10 22 -10 49 0 54 -9 66 -40 56 -16
-5 -20 -15 -20 -56 0 -37 -4 -49 -15 -49 -12 0 -15 16 -15 88 0 49 3 92 7 95
14 15 23 5 23 -25z m-220 -68 c0 -53 -4 -90 -10 -90 -6 0 -10 37 -10 90 0 53
4 90 10 90 6 0 10 -37 10 -90z m148 74 c49 -34 15 -104 -50 -104 -24 0 -28 -4
-28 -30 0 -16 -4 -30 -10 -30 -6 0 -10 37 -10 90 l0 90 38 0 c21 0 48 -7 60
-16z m685 -14 c10 -16 21 -30 25 -30 4 0 16 14 27 30 11 16 26 30 33 30 17 0
16 -5 -15 -51 -29 -44 -29 -39 15 -106 24 -37 -12 -30 -39 8 l-22 31 -19 -31
c-11 -17 -26 -31 -34 -31 -19 0 -18 4 12 49 l26 40 -26 38 c-29 42 -32 53 -13
53 7 0 21 -13 30 -30z m211 24 c32 -12 17 -31 -25 -30 -58 1 -60 -19 -6 -44
47 -22 59 -42 46 -77 -14 -39 -119 -38 -119 2 0 18 12 19 27 4 15 -15 68 -7
68 11 0 8 -16 23 -35 32 -34 17 -60 43 -60 60 0 4 9 17 20 28 20 20 54 26 84
14z m-610 -66 c22 -31 20 -74 -4 -98 -24 -24 -48 -25 -78 -4 -24 17 -30 70
-12 105 15 28 74 26 94 -3z m144 -45 c2 -39 -1 -63 -8 -63 -5 0 -10 22 -10 49
0 54 -9 66 -40 56 -16 -5 -20 -15 -20 -56 0 -37 -4 -49 -15 -49 -12 0 -15 14
-15 64 l0 64 53 -1 52 -2 3 -62z m129 55 c6 -7 13 -25 17 -40 6 -27 5 -28 -40
-28 -32 0 -44 -4 -41 -12 2 -8 19 -13 41 -12 41 1 50 -20 12 -30 -31 -8 -71 7
-80 29 -11 30 -6 73 10 89 19 19 68 21 81 4z m2367 -344 c15 -47 25 -88 23
-91 -9 -8 -27 7 -27 23 0 10 -12 14 -39 14 -30 0 -40 -4 -44 -20 -3 -11 -12
-20 -20 -20 -13 0 -10 16 15 90 40 119 54 120 92 4z m154 70 c45 -31 17 -104
-40 -104 -24 0 -28 -4 -28 -30 0 -20 -5 -30 -15 -30 -12 0 -15 17 -15 90 l0
90 38 0 c21 0 48 -7 60 -16z m150 0 c49 -34 15 -104 -50 -104 -24 0 -28 -4
-28 -30 0 -16 -4 -30 -10 -30 -6 0 -10 37 -10 90 l0 90 38 0 c21 0 48 -7 60
-16z m72 -64 l0 -80 35 0 c19 0 35 -4 35 -10 0 -5 -20 -10 -45 -10 l-45 0 0
90 c0 53 4 90 10 90 6 0 10 -33 10 -80z m210 65 c0 -11 -12 -15 -45 -15 -41 0
-45 -2 -45 -24 0 -22 5 -25 43 -28 23 -2 42 -7 42 -13 0 -5 -19 -11 -42 -13
-38 -3 -43 -6 -43 -28 0 -22 4 -24 45 -24 25 0 45 -4 45 -10 0 -5 -25 -10 -55
-10 l-55 0 0 90 0 90 55 0 c42 0 55 -3 55 -15z m-1986 -271 c15 -47 25 -88 23
-91 -9 -8 -27 7 -27 23 0 10 -12 14 -39 14 -30 0 -40 -4 -44 -20 -3 -11 -12
-20 -20 -20 -13 0 -10 16 15 90 40 119 54 120 92 4z m154 70 c45 -31 17 -104
-40 -104 -24 0 -28 -4 -28 -30 0 -20 -5 -30 -15 -30 -12 0 -15 17 -15 90 l0
90 38 0 c21 0 48 -7 60 -16z m150 0 c49 -34 15 -104 -50 -104 -24 0 -28 -4
-28 -30 0 -16 -4 -30 -10 -30 -6 0 -10 37 -10 90 l0 90 38 0 c21 0 48 -7 60
-16z m72 -64 l0 -80 35 0 c19 0 35 -4 35 -10 0 -5 -20 -10 -45 -10 l-45 0 0
90 c0 53 4 90 10 90 6 0 10 -33 10 -80z m210 65 c0 -11 -12 -15 -45 -15 -41 0
-45 -2 -45 -24 0 -22 5 -25 43 -28 23 -2 42 -7 42 -13 0 -5 -19 -11 -42 -13
-38 -3 -43 -6 -43 -28 0 -22 4 -24 45 -24 25 0 45 -4 45 -10 0 -5 -25 -10 -55
-10 l-55 0 0 90 0 90 55 0 c42 0 55 -3 55 -15z"/>
<path d="M2332 6351 c-14 -39 -12 -44 16 -39 17 3 18 6 7 38 l-12 34 -11 -33z"/>
<path d="M2470 6360 c0 -29 2 -31 33 -28 27 2 32 7 32 28 0 21 -5 26 -32 28
-31 3 -33 1 -33 -28z"/>
<path d="M2620 6360 c0 -27 3 -30 30 -30 34 0 49 22 30 45 -7 8 -23 15 -36 15
-20 0 -24 -5 -24 -30z"/>
<path d="M1700 6000 c0 -29 2 -31 33 -28 27 2 32 7 32 28 0 21 -5 26 -32 28
-31 3 -33 1 -33 -28z"/>
<path d="M2800 6000 c0 -29 2 -31 33 -28 27 2 32 7 32 28 0 21 -5 26 -32 28
-31 3 -33 1 -33 -28z"/>
<path d="M1988 5964 c-15 -33 0 -59 33 -59 19 0 25 6 27 28 6 54 -39 77 -60
31z"/>
<path d="M2277 5983 c-17 -16 -5 -33 23 -33 32 0 37 9 18 28 -13 13 -31 16
-41 5z"/>
<path d="M3052 5978 c-23 -23 -11 -78 17 -78 23 0 41 20 41 45 0 23 -17 45
-35 45 -6 0 -16 -5 -23 -12z"/>
<path d="M3460 5930 c-11 -7 -12 -12 -3 -21 15 -15 47 -7 51 14 4 19 -23 23
-48 7z"/>
<path d="M5343 5845 c-11 -34 -10 -35 14 -35 21 0 23 3 17 23 -14 46 -20 48
-31 12z"/>
<path d="M5480 5860 c0 -29 2 -31 33 -28 27 2 32 7 32 28 0 21 -5 26 -32 28
-31 3 -33 1 -33 -28z"/>
<path d="M5630 5860 c0 -29 2 -31 33 -28 27 2 32 7 32 28 0 21 -5 26 -32 28
-31 3 -33 1 -33 -28z"/>
<path d="M5213 5483 c-19 -7 -17 -83 1 -83 33 0 46 13 46 45 0 21 -6 35 -16
39 -9 3 -16 6 -17 5 -1 0 -8 -3 -14 -6z"/>
<path d="M5491 5476 c-7 -8 -11 -27 -9 -43 2 -22 8 -28 27 -28 33 0 48 26 33
59 -13 29 -33 33 -51 12z"/>
<path d="M5772 5478 c-20 -20 -14 -28 19 -28 24 0 30 4 27 17 -4 22 -29 28
-46 11z"/>
<path d="M7096 3828 c-9 -35 -8 -38 14 -38 11 0 20 3 20 8 0 19 -13 52 -20 52
-4 0 -10 -10 -14 -22z"/>
<path d="M7240 3840 c0 -26 3 -30 29 -30 16 0 31 6 34 13 8 21 -13 47 -38 47
-21 0 -25 -5 -25 -30z"/>
<path d="M7380 3840 c0 -29 2 -31 33 -28 27 2 32 7 32 28 0 21 -5 26 -32 28
-31 3 -33 1 -33 -28z"/>
<path d="M2826 3488 c-9 -35 -8 -38 14 -38 11 0 20 3 20 8 0 19 -13 52 -20 52
-4 0 -10 -10 -14 -22z"/>
<path d="M2970 3500 c0 -26 3 -30 29 -30 16 0 31 6 34 13 8 21 -13 47 -38 47
-21 0 -25 -5 -25 -30z"/>
<path d="M3110 3500 c0 -29 2 -31 33 -28 27 2 32 7 32 28 0 21 -5 26 -32 28
-31 3 -33 1 -33 -28z"/>
<path d="M6940 3480 c0 -29 2 -31 33 -28 27 2 32 7 32 28 0 21 -5 26 -32 28
-31 3 -33 1 -33 -28z"/>
<path d="M7850 3480 c0 -25 4 -30 24 -30 33 0 53 25 36 45 -7 8 -23 15 -36 15
-20 0 -24 -5 -24 -30z"/>
<path d="M7228 3444 c-15 -33 0 -59 33 -59 19 0 25 6 27 28 6 54 -39 77 -60
31z"/>
<path d="M7517 3463 c-17 -16 -5 -33 23 -33 32 0 37 9 18 28 -13 13 -31 16
-41 5z"/>
<path d="M2680 3140 c0 -29 2 -31 33 -28 27 2 32 7 32 28 0 21 -5 26 -32 28
-31 3 -33 1 -33 -28z"/>
<path d="M2968 3104 c-15 -33 0 -59 33 -59 19 0 25 6 27 28 6 54 -39 77 -60
31z"/>
<path d="M3257 3123 c-17 -16 -5 -33 23 -33 32 0 37 9 18 28 -13 13 -31 16
-41 5z"/>
<path d="M5626 2788 c-9 -35 -8 -38 14 -38 11 0 20 3 20 8 0 19 -13 52 -20 52
-4 0 -10 -10 -14 -22z"/>
<path d="M5770 2800 c0 -26 3 -30 29 -30 16 0 31 6 34 13 8 21 -13 47 -38 47
-21 0 -25 -5 -25 -30z"/>
<path d="M5910 2800 c0 -29 2 -31 33 -28 27 2 32 7 32 28 0 21 -5 26 -32 28
-31 3 -33 1 -33 -28z"/>
<path d="M1370 2616 c-15 -40 -13 -46 14 -46 24 0 24 2 14 33 -15 43 -16 44
-28 13z"/>
<path d="M1510 2620 c0 -27 3 -30 30 -30 34 0 49 22 30 45 -7 8 -23 15 -36 15
-20 0 -24 -5 -24 -30z"/>
<path d="M1660 2620 c0 -26 3 -30 29 -30 16 0 31 6 34 13 8 21 -13 47 -38 47
-21 0 -25 -5 -25 -30z"/>
<path d="M5480 2440 c0 -29 2 -31 33 -28 27 2 32 7 32 28 0 21 -5 26 -32 28
-31 3 -33 1 -33 -28z"/>
<path d="M5768 2404 c-15 -33 0 -59 33 -59 19 0 25 6 27 28 6 54 -39 77 -60
31z"/>
<path d="M6057 2423 c-17 -16 -5 -33 23 -33 32 0 37 9 18 28 -13 13 -31 16
-41 5z"/>
<path d="M1220 2260 c0 -29 2 -31 33 -28 27 2 32 7 32 28 0 21 -5 26 -32 28
-31 3 -33 1 -33 -28z"/>
<path d="M1508 2224 c-15 -33 0 -59 33 -59 19 0 25 6 27 28 6 54 -39 77 -60
31z"/>
<path d="M1797 2243 c-17 -16 -5 -33 23 -33 32 0 37 9 18 28 -13 13 -31 16
-41 5z"/>
<path d="M4166 1928 c-9 -35 -8 -38 14 -38 11 0 20 3 20 8 0 19 -13 52 -20 52
-4 0 -10 -10 -14 -22z"/>
<path d="M4310 1940 c0 -26 3 -30 29 -30 16 0 31 6 34 13 8 21 -13 47 -38 47
-21 0 -25 -5 -25 -30z"/>
<path d="M4450 1940 c0 -29 2 -31 33 -28 27 2 32 7 32 28 0 21 -5 26 -32 28
-31 3 -33 1 -33 -28z"/>
<path d="M2766 1728 c-9 -35 -8 -38 14 -38 11 0 20 3 20 8 0 19 -13 52 -20 52
-4 0 -10 -10 -14 -22z"/>
<path d="M2910 1740 c0 -26 3 -30 29 -30 16 0 31 6 34 13 8 21 -13 47 -38 47
-21 0 -25 -5 -25 -30z"/>
<path d="M3050 1740 c0 -29 2 -31 33 -28 27 2 32 7 32 28 0 21 -5 26 -32 28
-31 3 -33 1 -33 -28z"/>
<path d="M17668 8008 c-20 -7 -30 -20 -37 -46 -18 -64 10 -122 59 -122 42 0
61 21 67 73 9 75 -29 115 -89 95z m56 -24 c36 -36 13 -134 -31 -134 -24 0 -53
39 -53 73 0 63 48 98 84 61z"/>
<path d="M17250 7925 c0 -50 4 -85 10 -85 6 0 10 35 10 85 0 50 -4 85 -10 85
-6 0 -10 -35 -10 -85z"/>
<path d="M17320 7925 c0 -50 4 -85 10 -85 6 0 10 16 10 35 0 33 2 35 33 35 40
0 57 15 57 50 0 37 -18 50 -67 50 l-43 0 0 -85z m81 65 c39 -21 16 -70 -33
-70 -26 0 -28 3 -28 40 0 34 3 40 21 40 11 0 29 -5 40 -10z"/>
<path d="M17470 7925 c0 -50 4 -85 10 -85 6 0 10 16 10 35 0 22 5 35 13 35 7
0 28 -16 47 -35 19 -19 38 -35 44 -35 5 0 -5 15 -23 34 -33 34 -33 34 -12 45
24 13 29 59 9 79 -7 7 -31 12 -55 12 l-43 0 0 -85z m81 65 c40 -22 12 -70 -40
-70 -18 0 -21 6 -21 40 0 34 3 40 21 40 11 0 29 -5 40 -10z"/>
<path d="M17463 7609 c-29 -10 -43 -39 -43 -86 0 -54 23 -83 65 -83 43 0 65
29 65 85 0 66 -38 102 -87 84z m56 -22 c28 -35 21 -107 -13 -129 -52 -35 -101
62 -60 120 17 25 56 29 73 9z"/>
<path d="M17252 7523 l2 -88 5 79 6 79 40 -76 c53 -103 65 -100 63 11 l-2 87
-5 -75 c-7 -84 -6 -84 -62 19 -39 73 -49 65 -47 -36z"/>
<path d="M17603 7525 c0 -49 2 -71 4 -47 5 53 21 54 59 2 26 -36 44 -50 44
-34 0 3 -13 23 -30 44 l-29 37 30 42 c40 53 23 54 -20 0 -36 -45 -47 -42 -54
11 -2 19 -4 -5 -4 -55z"/>
<path d="M17754 7525 c0 -49 1 -71 3 -48 2 23 2 64 0 90 -2 26 -3 8 -3 -42z"/>
<path d="M17835 7529 c-15 -44 -25 -83 -22 -86 4 -3 9 6 13 21 5 22 11 26 45
26 33 0 41 -4 50 -26 5 -15 12 -24 15 -21 11 10 -47 167 -61 167 -8 0 -24 -33
-40 -81z m64 -11 c1 -12 -6 -18 -22 -18 -35 0 -37 7 -19 58 l15 46 13 -34 c7
-19 13 -43 13 -52z"/>
<path d="M17251 7123 c1 -58 4 -76 8 -53 5 31 10 35 39 38 21 2 38 12 48 28
15 22 15 26 0 49 -13 20 -25 25 -56 25 l-40 0 1 -87z m70 67 c39 -21 16 -70
-33 -70 -26 0 -28 3 -28 40 0 34 3 40 21 40 11 0 29 -5 40 -10z"/>
<path d="M17390 7125 l0 -85 45 0 c25 0 45 5 45 10 0 6 -16 10 -35 10 l-35 0
0 75 c0 43 -4 75 -10 75 -6 0 -10 -35 -10 -85z"/>
<path d="M17502 7140 c6 -81 18 -100 62 -100 48 0 56 15 54 100 l-1 75 -6 -73
c-6 -71 -17 -91 -48 -92 -29 0 -43 32 -43 96 0 41 -4 64 -11 64 -8 0 -10 -21
-7 -70z"/>
<path d="M17682 7123 l2 -88 5 80 6 80 29 -77 c15 -43 32 -78 36 -78 5 0 12
10 16 23 3 12 16 47 28 77 l21 55 6 -80 5 -80 2 88 c2 70 -1 87 -12 87 -9 0
-23 -26 -37 -70 -13 -38 -26 -70 -29 -70 -3 0 -16 32 -29 70 -34 100 -51 94
-49 -17z"/>
<path d="M17250 6795 c-20 -24 -7 -48 38 -73 44 -25 52 -41 27 -62 -11 -9 -22
-9 -46 -1 -23 8 -30 8 -26 -2 2 -6 20 -13 40 -15 29 -3 39 2 52 21 21 32 11
52 -35 71 -46 18 -56 32 -39 52 9 11 23 14 46 11 20 -4 31 -2 28 4 -9 14 -71
11 -85 -6z"/>
<path d="M17425 6798 c-31 -85 -52 -158 -45 -158 5 0 13 11 16 26 6 22 11 25
48 22 34 -2 42 -7 44 -25 2 -13 8 -23 14 -23 5 0 8 6 5 13 -2 6 -15 45 -28 85
-21 67 -43 91 -54 60z m44 -80 c1 -12 -6 -18 -22 -18 -35 0 -37 7 -19 58 l15
46 13 -34 c7 -19 13 -43 13 -52z"/>
<path d="M17552 6723 l2 -88 5 80 c3 44 9 76 12 70 4 -5 16 -41 29 -78 12 -37
27 -66 33 -64 6 2 22 37 36 78 l26 74 3 -77 c4 -106 22 -100 22 7 0 75 -2 85
-18 85 -14 0 -24 -18 -41 -71 -13 -39 -26 -67 -31 -63 -4 5 -18 37 -30 72 -33
92 -50 83 -48 -25z"/>
<path d="M17770 6795 c-20 -24 -7 -48 38 -73 44 -25 52 -41 27 -62 -11 -9 -22
-9 -46 -1 -23 8 -30 8 -26 -2 2 -6 20 -13 40 -15 29 -3 39 2 52 21 21 32 11
52 -35 71 -46 18 -56 32 -39 52 9 11 23 14 46 11 20 -4 31 -2 28 4 -9 14 -71
11 -85 -6z"/>
<path d="M17912 6744 c-2 -86 10 -107 58 -102 25 2 38 10 47 28 15 30 17 140
3 140 -6 0 -10 -30 -10 -70 0 -59 -3 -71 -20 -80 -28 -15 -59 -4 -65 23 -3 12
-6 47 -8 77 -3 50 -3 49 -5 -16z"/>
<path d="M18082 6723 l2 -88 5 80 6 80 43 -77 c23 -43 47 -78 52 -78 6 0 9 36
8 88 l-2 87 -5 -75 -6 -75 -40 72 c-54 98 -65 96 -63 -14z"/>
<path d="M18270 6790 c-14 -14 -20 -33 -20 -63 0 -57 32 -90 81 -85 32 3 34 5
37 46 3 40 2 42 -25 41 -24 -2 -24 -2 -5 -6 17 -3 22 -11 22 -33 0 -53 -70
-48 -90 6 -21 55 18 111 70 101 17 -4 30 -2 30 3 0 19 -79 11 -100 -10z"/>
<path d="M17874 6330 c0 -52 1 -74 3 -47 2 26 2 68 0 95 -2 26 -3 4 -3 -48z"/>
<path d="M17242 6340 c6 -81 18 -100 62 -100 48 0 56 15 54 100 l-1 75 -6 -73
c-6 -71 -17 -91 -48 -92 -29 0 -43 32 -43 96 0 41 -4 64 -11 64 -8 0 -10 -21
-7 -70z"/>
<path d="M17623 6375 c-6 -14 -7 -25 -2 -25 5 0 9 -18 9 -39 0 -56 8 -71 39
-71 l26 0 -25 13 c-20 10 -26 21 -28 55 -3 40 -2 42 25 43 27 1 27 1 4 8 -13
3 -27 14 -30 23 -5 14 -8 13 -18 -7z"/>
<path d="M17438 6363 c-27 -4 -28 -6 -26 -66 1 -54 2 -56 5 -17 5 53 17 70 49
70 22 0 24 -4 24 -55 0 -30 5 -55 10 -55 6 0 10 24 10 53 0 51 -13 79 -34 76
-6 -1 -23 -4 -38 -6z"/>
<path d="M17737 6352 c-21 -23 -22 -76 -1 -96 17 -18 69 -21 79 -6 4 7 -3 8
-20 4 -18 -4 -32 -1 -45 11 -26 24 -17 35 31 35 32 0 39 4 39 19 0 24 -26 51
-49 51 -10 0 -25 -8 -34 -18z m67 -19 c9 -22 3 -25 -40 -21 l-39 3 22 22 c24
24 47 22 57 -4z"/>
<path d="M17563 6300 c0 -36 2 -50 4 -32 2 17 2 47 0 65 -2 17 -4 3 -4 -33z"/>
<path d="M16852 6048 c-17 -17 -17 -239 0 -256 8 -8 51 -12 128 -12 77 0 120
4 128 12 8 8 12 51 12 128 0 77 -4 120 -12 128 -8 8 -51 12 -128 12 -77 0
-120 -4 -128 -12z"/>
<path d="M17661 6009 c-42 -16 -55 -99 -20 -143 58 -73 145 13 106 106 -16 38
-46 51 -86 37z m61 -26 c37 -33 12 -133 -34 -133 -27 0 -48 34 -48 76 0 66 41
94 82 57z"/>
<path d="M17257 5969 c29 -44 29 -39 -15 -106 -9 -15 -10 -23 -3 -23 6 0 11 3
11 8 1 4 11 20 24 35 l23 29 22 -36 c13 -20 27 -36 33 -36 6 0 4 10 -4 23 -44
67 -44 62 -15 106 31 47 19 57 -13 11 -12 -16 -25 -30 -29 -30 -3 0 -15 14
-24 30 -10 17 -22 30 -28 30 -5 0 3 -18 18 -41z"/>
<path d="M17404 5925 c0 -49 1 -71 3 -48 2 23 2 64 0 90 -2 26 -3 8 -3 -42z"/>
<path d="M17487 5928 c-14 -45 -24 -84 -22 -86 2 -3 9 7 14 22 9 22 17 26 50
26 33 0 40 -4 45 -25 4 -14 10 -25 16 -25 14 0 -45 165 -61 168 -10 2 -23 -23
-42 -80z m64 -3 c3 -15 -2 -21 -23 -23 -32 -4 -33 3 -16 61 l12 40 12 -29 c7
-16 14 -38 15 -49z"/>
<path d="M17800 5926 c0 -105 18 -115 22 -13 l3 72 25 -73 c13 -40 29 -71 34
-69 6 2 22 37 37 78 l28 74 0 -77 c1 -45 5 -78 11 -78 6 0 10 35 10 86 0 74
-2 85 -17 82 -10 -2 -26 -29 -41 -71 -14 -37 -28 -65 -31 -62 -3 4 -15 34 -27
68 -13 39 -27 63 -37 65 -15 3 -17 -8 -17 -82z"/>
<path d="M18034 5925 c0 -49 1 -71 3 -48 2 23 2 64 0 90 -2 26 -3 8 -3 -42z"/>
<path d="M7430 5976 c-142 -39 -240 -137 -276 -275 -22 -89 -12 -172 32 -260
161 -322 639 -249 704 107 19 104 -13 220 -85 307 -87 107 -244 157 -375 121z"/>
<path d="M263 5690 c-99 -50 -154 -134 -155 -239 -1 -110 41 -192 128 -250 52
-34 112 -46 189 -38 227 23 327 315 163 474 -61 58 -101 76 -188 81 -69 3 -80
1 -137 -28z"/>
<path d="M4397 5004 c-350 -84 -455 -519 -183 -760 39 -35 44 -42 21 -31 -76
37 -183 39 -259 4 -232 -106 -240 -429 -13 -549 56 -30 213 -33 265 -5 48 26
39 15 -17 -21 -66 -43 -146 -132 -180 -201 -46 -90 -61 -155 -61 -260 0 -193
90 -358 252 -465 79 -53 159 -77 268 -83 166 -9 306 43 420 157 111 111 163
238 163 395 0 158 -62 296 -181 407 -72 66 -161 113 -252 131 l-65 14 55 6
c138 16 218 157 161 282 -36 79 -115 122 -204 112 -94 -12 -163 -81 -174 -176
-10 -87 55 -189 136 -210 19 -6 3 -10 -58 -15 -73 -6 -126 -19 -206 -51 -12
-5 -4 9 22 36 122 128 125 314 7 432 l-46 46 63 -27 c56 -24 78 -27 170 -27
101 0 108 1 180 37 75 38 122 75 172 138 l28 35 -22 -50 c-136 -323 26 -690
355 -800 368 -123 748 129 781 517 6 66 -7 173 -30 243 -3 11 4 2 16 -19 33
-61 122 -144 186 -174 52 -24 69 -27 168 -27 100 0 115 2 167 28 123 60 207
171 228 302 42 260 -196 501 -452 456 -177 -31 -310 -163 -338 -335 -8 -51 -2
-126 15 -189 3 -12 -9 5 -27 38 -50 92 -170 207 -259 250 -176 83 -351 84
-524 2 -85 -41 -161 -103 -216 -177 -23 -30 -43 -57 -45 -59 -3 -3 4 15 15 40
109 246 -39 544 -299 603 -82 19 -126 19 -203 0z m787 -970 c15 -47 25 -88 23
-91 -9 -8 -27 7 -27 23 0 10 -12 14 -39 14 -30 0 -40 -4 -44 -20 -3 -11 -12
-20 -20 -20 -13 0 -10 16 15 90 40 119 54 120 92 4z m154 70 c45 -31 17 -104
-40 -104 -24 0 -28 -4 -28 -30 0 -20 -5 -30 -15 -30 -12 0 -15 17 -15 90 l0
90 38 0 c21 0 48 -7 60 -16z m150 0 c49 -34 15 -104 -50 -104 -24 0 -28 -4
-28 -30 0 -16 -4 -30 -10 -30 -6 0 -10 37 -10 90 l0 90 38 0 c21 0 48 -7 60
-16z m72 -64 l0 -80 35 0 c19 0 35 -4 35 -10 0 -5 -20 -10 -45 -10 l-45 0 0
90 c0 53 4 90 10 90 6 0 10 -33 10 -80z m210 65 c0 -11 -12 -15 -45 -15 -41 0
-45 -2 -45 -24 0 -22 5 -25 43 -28 23 -2 42 -7 42 -13 0 -5 -19 -11 -42 -13
-38 -3 -43 -6 -43 -28 0 -22 4 -24 45 -24 25 0 45 -4 45 -10 0 -5 -25 -10 -55
-10 l-55 0 0 90 0 90 55 0 c42 0 55 -3 55 -15z m-1466 -951 c15 -47 25 -88 23
-91 -9 -8 -27 7 -27 23 0 10 -12 14 -39 14 -30 0 -40 -4 -44 -20 -3 -11 -12
-20 -20 -20 -13 0 -10 16 15 90 40 119 54 120 92 4z m154 70 c45 -31 17 -104
-40 -104 -24 0 -28 -4 -28 -30 0 -20 -5 -30 -15 -30 -12 0 -15 17 -15 90 l0
90 38 0 c21 0 48 -7 60 -16z m150 0 c49 -34 15 -104 -50 -104 -24 0 -28 -4
-28 -30 0 -16 -4 -30 -10 -30 -6 0 -10 37 -10 90 l0 90 38 0 c21 0 48 -7 60
-16z m72 -64 l0 -80 35 0 c19 0 35 -4 35 -10 0 -5 -20 -10 -45 -10 l-45 0 0
90 c0 53 4 90 10 90 6 0 10 -33 10 -80z m210 65 c0 -11 -12 -15 -45 -15 -41 0
-45 -2 -45 -24 0 -22 5 -25 43 -28 23 -2 42 -7 42 -13 0 -5 -19 -11 -42 -13
-38 -3 -43 -6 -43 -28 0 -22 4 -24 45 -24 25 0 45 -4 45 -10 0 -5 -25 -10 -55
-10 l-55 0 0 90 0 90 55 0 c42 0 55 -3 55 -15z"/>
<path d="M5126 4048 c-9 -35 -8 -38 14 -38 11 0 20 3 20 8 0 19 -13 52 -20 52
-4 0 -10 -10 -14 -22z"/>
<path d="M5270 4060 c0 -26 3 -30 29 -30 16 0 31 6 34 13 8 21 -13 47 -38 47
-21 0 -25 -5 -25 -30z"/>
<path d="M5410 4060 c0 -29 2 -31 33 -28 27 2 32 7 32 28 0 21 -5 26 -32 28
-31 3 -33 1 -33 -28z"/>
<path d="M4246 3168 c-9 -35 -8 -38 14 -38 11 0 20 3 20 8 0 19 -13 52 -20 52
-4 0 -10 -10 -14 -22z"/>
<path d="M4390 3180 c0 -26 3 -30 29 -30 16 0 31 6 34 13 8 21 -13 47 -38 47
-21 0 -25 -5 -25 -30z"/>
<path d="M4530 3180 c0 -29 2 -31 33 -28 27 2 32 7 32 28 0 21 -5 26 -32 28
-31 3 -33 1 -33 -28z"/>
<path d="M882 4762 c-134 -48 -211 -165 -200 -305 13 -154 141 -275 296 -278
l47 -1 -61 -13 c-129 -28 -253 -114 -324 -225 -100 -156 -98 -380 4 -535 112
-169 302 -256 494 -226 339 52 527 412 377 718 -82 167 -262 279 -454 284 -32
1 -33 1 -11 8 155 48 246 190 218 343 -12 67 -37 114 -85 160 -79 77 -202 105
-301 70z"/>
<path d="M6801 2313 c-77 -38 -110 -144 -69 -222 31 -60 65 -83 131 -89 106
-9 181 60 181 163 0 122 -132 202 -243 148z"/>
<path d="M6639 2007 c-147 -42 -239 -157 -239 -303 0 -94 22 -153 81 -218 67
-74 130 -100 234 -101 68 0 89 4 137 28 233 114 237 449 8 564 -76 38 -153 49
-221 30z"/>
<path d="M2035 1657 c-144 -58 -207 -189 -159 -330 17 -51 75 -117 125 -143
49 -25 137 -30 197 -10 55 19 120 74 149 128 25 47 25 170 -1 222 -24 47 -74
100 -119 122 -40 21 -152 28 -192 11z"/>
<path d="M1522 1581 c-205 -71 -222 -354 -28 -459 22 -12 55 -17 111 -17 89 0
118 11 174 67 131 128 75 361 -100 412 -67 20 -92 20 -157 -3z"/>
<path d="M5723 1306 c-86 -28 -160 -93 -204 -178 -34 -65 -38 -185 -9 -260 28
-75 96 -150 168 -185 49 -24 69 -28 142 -28 71 0 94 4 140 26 80 37 125 81
162 157 29 58 33 76 33 147 0 71 -4 88 -33 147 -36 73 -87 124 -161 160 -56
27 -177 34 -238 14z"/>
<path d="M2335 1244 c-78 -40 -110 -100 -103 -190 8 -95 84 -164 181 -164 86
0 169 62 183 136 24 129 -57 234 -181 234 -27 0 -63 -7 -80 -16z"/>
</g>
</svg>
