<?xml version="1.0" standalone="no"?>
<!DOCTYPE svg PUBLIC "-//W3C//DTD SVG 20010904//EN"
 "http://www.w3.org/TR/2001/REC-SVG-20010904/DTD/svg10.dtd">
<svg version="1.0" xmlns="http://www.w3.org/2000/svg"
 width="2004.000000pt" height="984.000000pt" viewBox="0 0 2004.000000 984.000000"
 preserveAspectRatio="xMidYMid meet">

<g transform="translate(0.000000,984.000000) scale(0.100000,-0.100000)"
fill="#000000" stroke="none">
<path d="M16800 9525 c0 -69 3 -85 15 -85 12 0 15 15 16 68 l1 67 22 -65 c13
-36 28 -65 35 -65 7 0 23 32 36 70 l23 70 1 -72 c1 -58 4 -73 16 -73 12 0 15
16 15 85 0 83 -1 85 -24 85 -20 0 -26 -8 -42 -65 -10 -36 -22 -65 -25 -65 -4
0 -15 29 -24 65 -16 57 -21 65 -41 65 -23 0 -24 -2 -24 -85z"/>
<path d="M17020 9505 c0 -37 4 -65 10 -65 6 0 10 15 10 33 0 33 24 67 48 67 7
0 12 7 12 15 0 20 -19 19 -42 -2 -17 -15 -18 -15 -18 0 0 10 -4 17 -10 17 -6
0 -10 -28 -10 -65z"/>
<path d="M17122 9483 c2 -46 8 -84 13 -86 6 -1 11 8 13 21 2 16 10 22 27 22
32 0 55 25 55 61 0 54 -15 69 -66 67 l-45 -2 3 -83z m76 55 c27 -27 7 -78 -30
-78 -14 0 -18 8 -18 38 0 52 20 68 48 40z"/>
<path d="M4880 9290 c0 -93 4 -150 10 -150 6 0 10 34 10 83 0 80 1 84 25 95
39 18 73 15 85 -7 5 -11 10 -54 10 -95 0 -44 4 -76 10 -76 17 0 12 162 -6 188
-17 24 -70 30 -105 12 -18 -10 -19 -7 -19 45 0 30 -4 55 -10 55 -6 0 -10 -57
-10 -150z"/>
<path d="M7500 9290 c0 -93 4 -150 10 -150 6 0 10 57 10 150 0 93 -4 150 -10
150 -6 0 -10 -57 -10 -150z"/>
<path d="M8387 9422 c-10 -10 -17 -31 -17 -45 0 -20 -5 -27 -20 -27 -11 0 -20
-4 -20 -10 0 -5 9 -10 20 -10 19 0 20 -7 20 -95 0 -57 4 -95 10 -95 6 0 10 38
10 95 l0 95 40 0 c22 0 40 5 40 10 0 6 -18 10 -40 10 -35 0 -40 3 -40 23 0 31
18 47 52 47 15 0 28 5 28 10 0 18 -66 11 -83 -8z"/>
<path d="M9240 9290 c0 -93 4 -150 10 -150 6 0 10 34 10 83 0 80 1 84 25 95
33 15 68 15 83 0 7 -7 12 -44 12 -95 0 -49 4 -83 10 -83 6 0 10 36 10 89 0
106 -11 125 -69 119 -20 -3 -44 -8 -53 -12 -16 -7 -18 -2 -18 48 0 31 -4 56
-10 56 -6 0 -10 -57 -10 -150z"/>
<path d="M9560 9292 l0 -149 55 -2 c50 -2 59 1 85 28 26 25 30 37 30 81 0 41
-5 56 -26 77 -23 23 -31 25 -75 20 l-49 -6 0 49 c0 28 -4 50 -10 50 -6 0 -10
-56 -10 -148z m130 16 c29 -32 27 -92 -5 -124 -20 -20 -34 -25 -63 -22 l-37 3
-3 70 c-2 57 0 72 14 82 27 20 71 16 94 -9z"/>
<path d="M10570 9392 c0 -48 0 -49 -30 -44 -72 10 -120 -35 -120 -114 0 -61
30 -94 84 -94 23 0 47 5 54 12 9 9 12 9 12 0 0 -7 5 -12 10 -12 6 0 10 57 10
150 0 93 -4 150 -10 150 -5 0 -10 -22 -10 -48z m-2 -137 c3 -77 -8 -95 -59
-95 -68 0 -92 97 -38 151 14 14 30 19 57 17 l37 -3 3 -70z"/>
<path d="M190 9420 c0 -5 20 -10 45 -10 l45 0 0 -135 c0 -113 2 -135 15 -135
13 0 15 22 15 135 l0 135 45 0 c25 0 45 5 45 10 0 6 -42 10 -105 10 -63 0
-105 -4 -105 -10z"/>
<path d="M1050 9286 c0 -186 18 -197 22 -13 l3 132 48 -132 c28 -75 55 -133
62 -133 7 0 34 58 61 133 l49 132 3 -132 c4 -184 22 -173 22 13 0 143 0 145
-21 142 -18 -2 -30 -25 -66 -128 -24 -68 -45 -126 -47 -128 -2 -1 -24 55 -48
125 -37 105 -49 129 -67 131 -21 3 -21 1 -21 -142z"/>
<path d="M4030 9415 c0 -8 7 -15 15 -15 8 0 15 7 15 15 0 8 -7 15 -15 15 -8 0
-15 -7 -15 -15z"/>
<path d="M5447 9293 c-51 -148 -52 -153 -38 -153 5 0 16 19 24 43 l14 42 64 0
64 0 15 -42 c8 -24 20 -43 27 -43 7 0 13 1 13 3 -1 1 -23 65 -49 142 -65 189
-71 190 -134 8z m70 -41 c-27 -2 -51 -1 -54 2 -5 4 33 129 45 150 3 6 18 -26
32 -70 l27 -79 -50 -3z"/>
<path d="M3860 9380 c0 -23 -4 -30 -20 -30 -11 0 -20 -4 -20 -10 0 -5 9 -10
20 -10 18 0 20 -7 20 -79 0 -59 4 -84 16 -95 17 -18 79 -22 89 -6 4 6 -8 10
-27 10 -49 0 -58 14 -58 97 l0 73 46 0 c27 0 43 4 39 10 -3 6 -24 10 -46 10
-37 0 -39 2 -39 30 0 17 -4 30 -10 30 -5 0 -10 -13 -10 -30z"/>
<path d="M4710 9380 c0 -23 -4 -30 -20 -30 -11 0 -20 -4 -20 -10 0 -5 9 -10
20 -10 18 0 20 -7 20 -73 0 -92 15 -117 71 -117 21 0 39 5 39 10 0 6 -16 10
-35 10 -45 0 -57 23 -53 103 l3 62 43 3 c56 4 54 22 -3 22 -43 0 -45 1 -45 30
0 17 -4 30 -10 30 -5 0 -10 -13 -10 -30z"/>
<path d="M420 9245 c0 -63 4 -105 10 -105 6 0 10 26 10 59 0 56 2 60 40 95 22
20 47 36 55 36 8 0 15 5 15 10 0 19 -38 10 -68 -15 -17 -14 -33 -25 -36 -25
-3 0 -6 11 -6 25 0 14 -4 25 -10 25 -6 0 -10 -42 -10 -105z"/>
<path d="M613 9330 c-42 -38 -42 -132 0 -170 25 -24 94 -27 123 -6 24 18 13
31 -14 17 -37 -20 -79 -13 -101 15 -12 15 -21 31 -21 35 0 5 36 9 81 9 l81 0
-7 33 c-11 54 -37 82 -81 85 -29 2 -45 -3 -61 -18z m101 -22 c9 -12 16 -31 16
-41 0 -16 -8 -18 -62 -15 -57 3 -63 5 -60 23 10 54 77 75 106 33z"/>
<path d="M836 9331 c-40 -44 -40 -128 0 -172 27 -30 144 -19 144 14 0 5 -8 6
-17 1 -10 -4 -35 -9 -56 -12 -42 -5 -77 17 -77 50 0 16 9 18 75 18 66 0 75 2
75 19 0 32 -22 81 -40 91 -31 16 -85 12 -104 -9z m96 -18 c9 -10 19 -28 22
-40 7 -22 5 -23 -58 -23 -57 0 -66 3 -66 18 0 53 69 83 102 45z"/>
<path d="M1423 9343 c-7 -2 -13 -11 -13 -19 0 -11 4 -12 19 -4 30 16 76 12 94
-8 28 -30 20 -39 -39 -48 -45 -7 -61 -15 -78 -37 -19 -26 -19 -30 -5 -55 17
-31 72 -42 111 -21 16 9 23 9 26 0 2 -6 8 -11 13 -11 5 0 9 38 9 85 0 104 -15
125 -82 124 -24 0 -49 -3 -55 -6z m115 -125 c4 -33 -29 -58 -75 -58 -64 0 -60
73 5 83 53 8 67 3 70 -25z"/>
<path d="M1630 9203 c0 -89 4 -143 10 -143 6 0 10 18 10 40 l0 40 48 0 c72 1
102 34 102 113 0 30 -7 53 -21 71 -19 24 -26 26 -85 24 l-64 -3 0 -142z m130
107 c27 -27 27 -89 -1 -124 -18 -23 -28 -27 -63 -24 l-41 3 -3 70 c-2 57 0 72
14 82 26 19 71 16 94 -7z"/>
<path d="M1882 9334 c-48 -33 -22 -77 61 -104 43 -13 56 -33 37 -55 -14 -17
-72 -20 -101 -5 -15 8 -19 7 -19 -4 0 -31 106 -38 133 -8 38 41 15 76 -66 102
-43 13 -56 33 -37 55 14 17 63 20 91 5 15 -8 19 -7 19 4 0 29 -81 36 -118 10z"/>
<path d="M2160 9245 c0 -63 4 -105 10 -105 6 0 10 26 10 58 0 51 4 62 31 90
17 17 39 34 50 37 10 4 19 11 19 16 0 16 -26 10 -64 -16 l-36 -24 0 24 c0 14
-4 25 -10 25 -6 0 -10 -42 -10 -105z"/>
<path d="M2345 9325 c-21 -20 -25 -34 -25 -80 0 -46 4 -60 25 -80 28 -29 98
-35 131 -11 24 18 13 31 -14 17 -48 -26 -122 1 -122 44 0 12 15 15 75 15 l75
0 0 28 c0 15 -9 42 -20 60 -17 28 -25 32 -60 32 -30 0 -47 -7 -65 -25z m103
-8 c6 -6 13 -24 17 -40 l7 -27 -66 0 c-72 0 -83 12 -50 58 17 25 74 31 92 9z"/>
<path d="M2550 9203 c0 -89 4 -143 10 -143 6 0 10 18 10 40 l0 40 49 0 c38 0
53 5 73 25 43 43 45 118 5 163 -18 19 -29 22 -84 20 l-63 -3 0 -142z m136 102
c24 -36 21 -92 -7 -121 -19 -20 -31 -24 -64 -22 l-40 3 -3 65 c-3 57 0 67 19
82 32 26 75 23 95 -7z"/>
<path d="M2790 9245 c0 -63 4 -105 10 -105 6 0 10 26 10 58 0 51 4 62 31 90
17 17 39 34 50 37 10 4 19 11 19 16 0 16 -26 10 -64 -16 l-36 -24 0 24 c0 14
-4 25 -10 25 -6 0 -10 -42 -10 -105z"/>
<path d="M2992 9343 c-21 -8 -42 -60 -42 -106 0 -62 33 -97 93 -97 24 0 52 6
63 14 24 18 13 31 -14 17 -34 -18 -77 -13 -100 12 -37 40 -29 47 53 47 l75 0
0 34 c0 50 -33 86 -78 85 -20 0 -43 -3 -50 -6z m92 -35 c33 -46 22 -58 -49
-58 -72 0 -80 9 -44 54 26 33 71 35 93 4z"/>
<path d="M3196 9337 c-12 -9 -17 -23 -14 -47 3 -32 7 -36 52 -51 53 -16 73
-36 63 -63 -7 -19 -67 -22 -99 -5 -27 14 -38 1 -14 -17 24 -17 97 -18 118 -1
43 35 25 81 -38 100 -55 16 -74 37 -55 61 15 18 53 21 81 6 12 -6 21 -7 25 -1
16 27 -86 42 -119 18z"/>
<path d="M3406 9331 c-40 -44 -40 -128 0 -172 27 -30 144 -19 144 14 0 5 -8 6
-17 1 -10 -4 -35 -9 -56 -12 -42 -5 -77 17 -77 50 0 16 9 18 75 18 66 0 75 2
75 19 0 32 -22 81 -40 91 -31 16 -85 12 -104 -9z m96 -18 c9 -10 19 -28 22
-40 7 -22 5 -23 -58 -23 -57 0 -66 3 -66 18 0 53 69 83 102 45z"/>
<path d="M3610 9245 c0 -63 4 -105 10 -105 6 0 10 33 10 79 0 73 2 80 26 95
14 10 39 16 57 14 l32 -3 3 -92 c1 -51 7 -93 12 -93 15 0 13 183 -2 198 -15
15 -73 16 -101 1 -16 -9 -22 -9 -25 0 -2 6 -8 11 -13 11 -5 0 -9 -47 -9 -105z"/>
<path d="M4030 9245 c0 -63 4 -105 10 -105 6 0 10 42 10 105 0 63 -4 105 -10
105 -6 0 -10 -42 -10 -105z"/>
<path d="M4140 9245 c0 -63 4 -105 10 -105 6 0 10 33 10 79 0 73 2 80 26 95
14 10 39 16 57 14 l32 -3 3 -92 c1 -51 7 -93 12 -93 15 0 13 183 -2 198 -15
15 -73 16 -101 1 -16 -9 -22 -9 -25 0 -2 6 -8 11 -13 11 -5 0 -9 -47 -9 -105z"/>
<path d="M4402 9330 c-48 -45 -51 -118 -6 -161 20 -19 31 -21 74 -16 49 6 51
5 45 -16 -11 -38 -45 -59 -83 -52 -18 3 -40 9 -49 12 -10 4 -14 2 -11 -7 7
-22 68 -33 109 -21 49 15 59 45 59 175 l0 101 -58 3 c-47 2 -61 -1 -80 -18z
m102 -6 c12 -5 16 -21 16 -65 0 -48 -4 -60 -22 -73 -54 -38 -108 -6 -108 63 0
60 56 97 114 75z"/>
<path d="M5125 9325 c-21 -20 -25 -34 -25 -80 0 -46 4 -60 25 -80 28 -29 98
-35 131 -11 24 18 13 31 -14 17 -48 -26 -122 1 -122 44 0 12 15 15 75 15 l75
0 0 28 c0 15 -9 42 -20 60 -17 28 -25 32 -60 32 -30 0 -47 -7 -65 -25z m103
-8 c6 -6 13 -24 17 -40 l7 -27 -66 0 c-72 0 -83 12 -50 58 17 25 74 31 92 9z"/>
<path d="M5660 9340 c0 -6 16 -53 36 -106 27 -70 41 -94 53 -92 16 3 97 196
86 206 -10 10 -22 -12 -50 -91 -15 -43 -31 -80 -35 -82 -4 -3 -22 36 -40 85
-18 50 -36 90 -41 90 -5 0 -9 -5 -9 -10z"/>
<path d="M5922 9343 c-21 -8 -42 -60 -42 -106 0 -62 33 -97 93 -97 24 0 52 6
63 14 24 18 13 31 -14 17 -34 -18 -77 -13 -100 12 -37 40 -29 47 53 47 l75 0
0 34 c0 50 -33 86 -78 85 -20 0 -43 -3 -50 -6z m92 -35 c33 -46 22 -58 -49
-58 -72 0 -80 9 -44 54 26 33 71 35 93 4z"/>
<path d="M6120 9245 c0 -63 4 -105 10 -105 6 0 10 28 10 64 0 61 2 66 35 95
20 17 42 31 50 31 8 0 15 5 15 10 0 19 -38 10 -69 -16 l-31 -26 0 26 c0 14 -4
26 -10 26 -6 0 -10 -42 -10 -105z"/>
<path d="M6308 9343 c-10 -2 -18 -11 -18 -18 0 -11 6 -12 26 -5 37 14 70 12
88 -6 28 -27 19 -41 -31 -49 -68 -9 -93 -28 -93 -68 0 -18 5 -38 12 -45 16
-16 90 -15 107 1 11 10 14 10 18 0 13 -36 23 -3 23 76 0 82 -2 91 -22 105 -21
15 -72 19 -110 9z m112 -127 c0 -28 -5 -36 -29 -46 -44 -18 -85 -10 -89 18 -6
40 18 55 96 61 19 1 22 -4 22 -33z"/>
<path d="M6544 9336 c-48 -34 -55 -125 -13 -167 22 -22 88 -26 107 -7 9 9 12
5 12 -20 0 -47 -38 -69 -93 -55 -45 12 -57 9 -39 -9 20 -20 107 -16 131 6 19
17 21 30 21 140 l0 121 -52 3 c-35 2 -60 -2 -74 -12z m104 -76 c2 -52 0 -67
-14 -77 -59 -43 -130 22 -104 93 15 40 39 55 80 52 l35 -3 3 -65z"/>
<path d="M6765 9325 c-21 -20 -25 -34 -25 -80 0 -46 4 -60 25 -80 28 -29 98
-35 131 -11 24 18 13 31 -14 17 -48 -26 -122 1 -122 44 0 12 15 15 75 15 l75
0 0 28 c0 15 -9 42 -20 60 -17 28 -25 32 -60 32 -30 0 -47 -7 -65 -25z m103
-8 c6 -6 13 -24 17 -40 l7 -27 -66 0 c-72 0 -83 12 -50 58 17 25 74 31 92 9z"/>
<path d="M7072 9334 c-48 -33 -22 -77 61 -104 43 -13 56 -33 37 -55 -14 -17
-72 -20 -101 -5 -15 8 -19 7 -19 -4 0 -31 106 -38 133 -8 38 41 15 76 -66 102
-43 13 -56 33 -37 55 14 17 63 20 91 5 15 -8 19 -7 19 4 0 29 -81 36 -118 10z"/>
<path d="M7277 9339 c-24 -14 -12 -32 13 -19 33 18 78 12 94 -12 9 -12 16 -26
16 -30 0 -3 -25 -10 -56 -14 -63 -7 -94 -30 -94 -68 0 -14 7 -32 16 -40 18
-19 76 -21 107 -5 16 9 22 9 25 0 2 -6 8 -11 13 -11 5 0 9 35 9 79 0 101 -19
131 -83 131 -23 0 -50 -5 -60 -11z m121 -120 c6 -50 -94 -81 -122 -37 -20 33
34 68 99 64 14 -1 21 -9 23 -27z"/>
<path d="M7626 9331 c-40 -44 -40 -128 0 -172 27 -30 144 -19 144 14 0 5 -8 6
-17 1 -10 -4 -35 -9 -56 -12 -42 -5 -77 17 -77 50 0 16 9 18 75 18 66 0 75 2
75 19 0 32 -22 81 -40 91 -31 16 -85 12 -104 -9z m96 -18 c9 -10 19 -28 22
-40 7 -22 5 -23 -58 -23 -57 0 -66 3 -66 18 0 53 69 83 102 45z"/>
<path d="M7842 9334 c-48 -33 -22 -77 61 -104 43 -13 56 -33 37 -55 -14 -17
-72 -20 -101 -5 -15 8 -19 7 -19 -4 0 -31 106 -38 133 -8 38 41 15 76 -66 102
-43 13 -56 33 -37 55 14 17 63 20 91 5 15 -8 19 -7 19 4 0 29 -81 36 -118 10z"/>
<path d="M8135 9325 c-21 -20 -25 -34 -25 -79 0 -88 49 -127 128 -102 61 20
70 149 13 193 -28 22 -89 16 -116 -12z m114 -21 c43 -54 12 -144 -50 -144 -44
0 -69 31 -69 85 0 80 74 116 119 59z"/>
<path d="M8613 9330 c-42 -38 -42 -132 0 -170 25 -24 94 -27 123 -6 24 18 13
31 -14 17 -37 -20 -79 -13 -101 15 -12 15 -21 31 -21 35 0 5 36 9 81 9 l81 0
-7 33 c-11 54 -37 82 -81 85 -29 2 -45 -3 -61 -18z m101 -22 c9 -12 16 -31 16
-41 0 -16 -8 -18 -62 -15 -57 3 -63 5 -60 23 10 54 77 75 106 33z"/>
<path d="M8838 9343 c-10 -2 -18 -11 -18 -18 0 -11 6 -12 26 -5 37 14 70 12
88 -6 28 -27 19 -41 -31 -49 -68 -9 -93 -28 -93 -68 0 -18 5 -38 12 -45 16
-16 90 -15 107 1 11 10 14 10 18 0 13 -36 23 -3 23 76 0 82 -2 91 -22 105 -21
15 -72 19 -110 9z m112 -127 c0 -28 -5 -36 -29 -46 -44 -18 -85 -10 -89 18 -6
40 18 55 96 61 19 1 22 -4 22 -33z"/>
<path d="M9065 9326 c-45 -45 -45 -124 -1 -165 18 -17 33 -22 67 -19 23 2 44
8 46 15 3 8 -8 10 -37 6 -49 -7 -77 13 -86 62 -12 68 45 122 102 96 19 -8 24
-8 24 3 0 34 -82 35 -115 2z"/>
<path d="M9800 9245 c0 -63 4 -105 10 -105 6 0 10 28 10 64 0 61 2 66 35 95
20 17 42 31 50 31 8 0 15 5 15 10 0 19 -38 10 -69 -16 l-31 -26 0 26 c0 14 -4
26 -10 26 -6 0 -10 -42 -10 -105z"/>
<path d="M9988 9343 c-10 -2 -18 -11 -18 -18 0 -11 6 -12 26 -5 37 14 70 12
88 -6 28 -27 19 -41 -31 -49 -68 -9 -93 -28 -93 -68 0 -18 5 -38 12 -45 16
-16 90 -15 107 1 11 10 14 10 18 0 13 -36 23 -3 23 76 0 82 -2 91 -22 105 -21
15 -72 19 -110 9z m112 -127 c0 -28 -5 -36 -29 -46 -44 -18 -85 -10 -89 18 -6
40 18 55 96 61 19 1 22 -4 22 -33z"/>
<path d="M10200 9245 c0 -63 4 -105 10 -105 6 0 10 34 10 83 0 80 1 84 25 95
39 18 73 15 85 -7 5 -11 10 -54 10 -95 0 -49 4 -76 11 -76 18 0 8 188 -11 200
-20 13 -77 13 -101 0 -13 -7 -19 -7 -19 0 0 5 -4 10 -10 10 -6 0 -10 -42 -10
-105z"/>
<path d="M17264 8799 c-23 -8 -38 -47 -28 -73 7 -19 46 -31 74 -23 24 6 26
-10 4 -42 -13 -18 -23 -22 -46 -17 -18 3 -27 2 -23 -4 10 -16 61 -11 78 8 9
10 19 35 22 57 10 67 -31 113 -81 94z m56 -28 c16 -32 12 -50 -15 -57 -29 -7
-55 10 -55 35 0 40 51 56 70 22z"/>
<path d="M17404 8785 c-45 -45 -25 -155 30 -155 36 0 56 30 56 86 0 79 -42
113 -86 69z m64 -20 c16 -36 15 -76 -4 -103 -31 -45 -67 -13 -66 60 1 66 47
94 70 43z"/>
<path d="M19372 8794 c-28 -20 -37 -83 -18 -128 12 -30 20 -36 45 -36 38 0 55
28 54 93 -1 69 -38 101 -81 71z m58 -23 c23 -44 2 -131 -31 -131 -20 0 -39 35
-39 71 0 50 15 79 40 79 11 0 24 -9 30 -19z"/>
<path d="M16899 8780 c-26 -21 -19 -26 12 -10 18 10 19 7 19 -59 0 -68 -1 -70
-27 -74 -16 -2 -1 -4 32 -4 33 0 50 2 38 4 -22 4 -23 9 -23 84 0 87 -8 96 -51
59z"/>
<path d="M17123 8788 c-13 -6 -23 -15 -23 -20 0 -5 9 -4 19 2 31 16 32 14 29
-57 -3 -66 -4 -68 -33 -74 -20 -5 -9 -7 35 -7 41 0 56 3 40 7 -24 6 -25 11
-28 84 -2 42 -6 77 -10 76 -4 0 -17 -5 -29 -11z"/>
<path d="M18997 8794 c-11 -11 -8 -52 3 -59 7 -4 5 -14 -5 -28 -19 -27 -19
-42 1 -61 31 -31 104 -11 104 29 0 7 -7 21 -16 30 -12 12 -13 19 -4 30 6 8 10
24 8 37 -2 19 -10 24 -43 26 -23 2 -44 0 -48 -4z m73 -19 c15 -18 -2 -45 -30
-45 -10 0 -23 7 -30 15 -15 18 2 45 30 45 10 0 23 -7 30 -15z m7 -81 c9 -24
-10 -49 -37 -49 -27 0 -46 25 -37 49 4 10 18 16 37 16 19 0 33 -6 37 -16z"/>
<path d="M19142 8788 c-7 -7 -12 -19 -12 -28 0 -9 5 -21 12 -28 9 -9 9 -15 0
-24 -7 -7 -12 -21 -12 -33 0 -30 19 -45 55 -45 53 0 73 43 38 82 -9 10 -11 18
-5 18 17 0 25 39 12 55 -15 18 -71 20 -88 3z m73 -28 c0 -20 -6 -26 -28 -28
-29 -4 -44 16 -33 44 4 10 15 14 33 12 22 -2 28 -8 28 -28z m4 -64 c15 -17 5
-44 -20 -51 -22 -7 -59 11 -59 28 0 34 57 50 79 23z"/>
<path d="M19505 8788 c-2 -7 -5 -25 -8 -40 -4 -24 -1 -28 20 -28 54 0 83 -41
48 -70 -11 -9 -22 -9 -45 -2 -30 11 -44 -1 -14 -12 48 -18 94 6 94 49 0 27
-26 45 -66 45 -22 0 -25 3 -20 23 3 12 6 25 6 29 0 4 17 9 38 11 l37 4 -43 1
c-27 1 -44 -3 -47 -10z"/>
<path d="M19641 8781 c-12 -21 -5 -51 12 -51 5 0 3 -8 -6 -18 -10 -10 -17 -28
-17 -40 0 -43 78 -58 104 -20 14 20 14 24 1 45 -13 19 -13 26 -3 43 19 29 -1
54 -45 58 -27 2 -38 -2 -46 -17z m79 -6 c17 -20 -3 -45 -37 -45 -13 0 -26 7
-29 15 -10 25 4 45 29 45 14 0 30 -7 37 -15z m6 -87 c4 -15 1 -25 -12 -35 -23
-17 -39 -16 -58 3 -23 23 -4 54 34 54 21 0 31 -6 36 -22z"/>
<path d="M17026 8634 c-11 -28 -6 -39 9 -20 8 11 15 23 15 28 0 14 -18 9 -24
-8z"/>
<path d="M19276 8634 c-11 -28 -6 -39 9 -20 8 11 15 23 15 28 0 14 -18 9 -24
-8z"/>
<path d="M810 8415 c0 -57 4 -95 10 -95 6 0 10 38 10 95 0 57 -4 95 -10 95 -6
0 -10 -38 -10 -95z"/>
<path d="M377 8417 c-30 -93 -31 -97 -17 -97 5 0 12 11 16 25 5 21 12 25 40
25 28 0 36 -5 44 -25 5 -14 14 -25 20 -25 14 0 13 3 -17 97 -19 58 -32 83 -43
83 -11 0 -24 -25 -43 -83z m58 1 c6 -25 4 -28 -18 -28 -24 0 -25 1 -14 35 11
38 22 36 32 -7z"/>
<path d="M4750 8486 c0 -9 5 -16 10 -16 6 0 10 4 10 9 0 6 -4 13 -10 16 -5 3
-10 -1 -10 -9z"/>
<path d="M6485 8488 c-10 -28 -55 -162 -55 -165 0 -2 4 -3 10 -3 5 0 12 11 16
25 5 21 12 25 44 25 32 0 39 -4 44 -25 4 -14 11 -25 17 -25 11 0 11 2 -25 108
-22 64 -41 87 -51 60z m33 -65 c11 -32 10 -33 -20 -33 -23 0 -29 3 -24 16 3 9
9 27 12 41 8 28 17 21 32 -24z"/>
<path d="M6623 8490 c-17 -7 -23 -18 -23 -40 0 -27 6 -33 46 -50 33 -15 45
-25 42 -37 -3 -14 -13 -18 -51 -17 -47 0 -61 -8 -31 -20 29 -11 72 -6 88 10
30 30 15 60 -43 84 -19 8 -31 20 -31 32 0 24 25 33 56 20 19 -9 24 -9 24 2 0
8 -10 16 -22 20 -28 7 -27 7 -55 -4z"/>
<path d="M6933 8490 c-17 -7 -23 -18 -23 -40 0 -27 6 -33 46 -50 33 -15 45
-25 42 -37 -3 -14 -13 -18 -51 -17 -47 0 -61 -8 -31 -20 29 -11 72 -6 88 10
30 30 15 60 -43 84 -19 8 -31 20 -31 32 0 24 25 33 56 20 19 -9 24 -9 24 2 0
8 -10 16 -22 20 -28 7 -27 7 -55 -4z"/>
<path d="M8225 8475 c-30 -29 -34 -97 -9 -133 19 -27 74 -30 97 -4 39 43 27
135 -20 153 -35 13 -41 12 -68 -16z m84 -27 c11 -20 13 -35 6 -63 -20 -77 -95
-61 -95 20 0 74 57 101 89 43z"/>
<path d="M9245 8475 c-30 -29 -34 -97 -9 -133 19 -27 74 -30 97 -4 39 43 27
135 -20 153 -35 13 -41 12 -68 -16z m84 -27 c11 -20 13 -35 6 -63 -20 -77 -95
-61 -95 20 0 74 57 101 89 43z"/>
<path d="M9715 8475 c-30 -29 -34 -97 -9 -133 19 -27 74 -30 97 -4 39 43 27
135 -20 153 -35 13 -41 12 -68 -16z m84 -27 c11 -20 13 -35 6 -63 -20 -77 -95
-61 -95 20 0 74 57 101 89 43z"/>
<path d="M10920 8410 c0 -53 4 -90 10 -90 6 0 10 37 10 90 0 53 -4 90 -10 90
-6 0 -10 -37 -10 -90z"/>
<path d="M12023 8488 c-42 -20 -51 -109 -15 -150 23 -28 78 -23 98 7 26 40 21
105 -11 133 -29 24 -39 26 -72 10z m54 -16 c37 -23 34 -104 -5 -130 -19 -13
-23 -11 -48 13 -22 22 -25 32 -20 63 8 49 41 74 73 54z"/>
<path d="M12203 8490 c-75 -30 -48 -170 33 -170 19 0 34 5 34 10 0 6 -16 10
-35 10 -24 0 -37 6 -45 19 -29 55 7 129 56 117 26 -7 33 8 8 18 -19 7 -23 7
-51 -4z"/>
<path d="M12325 8475 c-30 -29 -34 -97 -9 -133 19 -27 74 -30 97 -4 39 43 27
135 -20 153 -35 13 -41 12 -68 -16z m84 -27 c11 -20 13 -35 6 -63 -20 -77 -95
-61 -95 20 0 74 57 101 89 43z"/>
<path d="M3960 8405 c0 -50 4 -85 10 -85 6 0 10 18 10 40 l0 40 45 0 45 0 0
-40 c0 -22 5 -40 10 -40 6 0 10 35 10 85 0 50 -4 85 -10 85 -5 0 -10 -16 -10
-35 0 -35 0 -35 -45 -35 -45 0 -45 0 -45 35 0 19 -4 35 -10 35 -6 0 -10 -35
-10 -85z"/>
<path d="M6742 8420 c3 -38 11 -77 18 -85 19 -23 76 -19 94 7 18 25 23 148 6
148 -6 0 -10 -28 -10 -64 0 -45 -5 -69 -16 -80 -20 -21 -30 -20 -54 4 -16 16
-20 33 -20 80 0 38 -4 60 -11 60 -8 0 -10 -21 -7 -70z"/>
<path d="M7813 8478 c2 -7 15 -46 28 -86 16 -50 28 -72 38 -70 8 2 26 38 42
86 16 48 23 82 17 80 -7 -3 -21 -32 -32 -65 -12 -34 -24 -64 -27 -67 -3 -3
-15 26 -28 64 -12 39 -27 70 -33 70 -5 0 -8 -6 -5 -12z"/>
<path d="M7980 8480 c0 -5 5 -10 10 -10 6 0 10 5 10 10 0 6 -4 10 -10 10 -5 0
-10 -4 -10 -10z"/>
<path d="M8040 8483 c0 -28 54 -163 65 -163 8 0 24 32 39 78 29 85 30 92 18
92 -5 0 -19 -35 -32 -77 l-23 -78 -25 78 c-15 42 -30 77 -34 77 -4 0 -8 -3 -8
-7z"/>
<path d="M9400 8405 c0 -50 4 -85 10 -85 6 0 10 13 10 29 0 24 5 29 32 35 42
8 58 23 58 55 0 38 -17 51 -67 51 l-43 0 0 -85z m71 65 c23 -13 25 -55 3 -64
-41 -16 -54 -7 -54 34 0 43 13 50 51 30z"/>
<path d="M9550 8405 c0 -50 4 -85 10 -85 6 0 10 13 10 29 0 24 5 29 32 35 42
8 58 23 58 55 0 38 -17 51 -67 51 l-43 0 0 -85z m71 65 c37 -20 17 -70 -28
-70 -20 0 -23 5 -23 40 0 43 13 50 51 30z"/>
<path d="M11840 8405 c0 -50 4 -85 10 -85 6 0 10 13 10 29 0 26 4 30 40 36 91
15 77 105 -16 105 l-44 0 0 -85z m74 65 c48 -18 23 -70 -33 -70 -17 0 -21 6
-21 33 0 49 9 55 54 37z"/>
<path d="M13140 8405 c0 -50 4 -85 10 -85 6 0 10 18 10 40 l0 40 45 0 45 0 0
-40 c0 -22 5 -40 10 -40 6 0 10 35 10 85 0 50 -4 85 -10 85 -5 0 -10 -16 -10
-35 0 -35 0 -35 -45 -35 -45 0 -45 0 -45 35 0 19 -4 35 -10 35 -6 0 -10 -35
-10 -85z"/>
<path d="M520 8358 c0 -52 4 -88 10 -88 6 0 10 11 10 25 0 17 4 23 14 19 16
-6 56 12 68 30 13 19 8 74 -8 90 -9 10 -30 15 -55 14 l-39 -1 0 -89z m83 50
c17 -26 -7 -68 -38 -68 -22 0 -25 4 -25 39 0 22 6 42 13 44 20 9 39 3 50 -15z"/>
<path d="M660 8358 c0 -52 4 -88 10 -88 6 0 10 11 10 23 0 20 5 24 31 24 39 0
59 24 59 74 0 46 -16 59 -69 57 l-41 -1 0 -89z m78 60 c29 -29 7 -78 -35 -78
-20 0 -23 5 -23 39 0 47 30 67 58 39z"/>
<path d="M883 8438 c-47 -60 4 -144 72 -118 38 14 30 27 -16 26 -25 -1 -44 4
-46 12 -3 8 9 12 41 12 51 0 60 16 30 58 -17 24 -65 30 -81 10z m65 -30 c3
-14 -3 -18 -27 -18 -34 0 -34 0 -25 25 8 21 48 16 52 -7z"/>
<path d="M4130 8401 c0 -73 5 -81 56 -81 l44 0 0 66 c0 41 -4 63 -10 59 -5 -3
-10 -28 -10 -54 0 -38 -4 -50 -17 -53 -35 -9 -43 2 -43 58 0 30 -4 54 -10 54
-5 0 -10 -22 -10 -49z"/>
<path d="M4283 8443 c-25 -10 -12 -20 23 -19 22 1 39 -4 41 -11 3 -8 -4 -13
-19 -13 -36 0 -60 -22 -56 -51 3 -21 8 -24 51 -25 l47 -2 0 52 c0 29 -5 57
-12 64 -12 12 -52 15 -75 5z m67 -78 c0 -19 -32 -36 -49 -25 -8 4 -11 15 -8
24 8 20 57 22 57 1z"/>
<path d="M4400 8445 c0 -3 7 -32 17 -65 20 -72 38 -77 55 -15 7 25 15 45 18
45 3 0 11 -20 18 -45 7 -26 18 -45 26 -45 14 0 52 117 42 128 -9 8 -12 2 -28
-53 l-15 -50 -15 49 c-8 28 -20 52 -26 54 -6 2 -16 -16 -23 -40 -18 -63 -24
-64 -38 -8 -7 27 -17 50 -22 50 -5 0 -9 -2 -9 -5z"/>
<path d="M4616 8428 c-37 -52 -6 -112 55 -106 18 2 34 9 37 16 3 9 -3 10 -20
4 -29 -11 -55 -5 -62 14 -4 11 4 14 39 14 41 0 45 2 45 23 0 51 -66 75 -94 35z
m72 -20 c3 -15 -4 -18 -32 -18 -38 0 -44 8 -24 28 17 17 52 11 56 -10z"/>
<path d="M4750 8386 c0 -37 4 -66 10 -66 6 0 10 26 10 59 0 33 -4 63 -10 66
-6 4 -10 -18 -10 -59z"/>
<path d="M7987 8443 c-11 -10 -8 -123 3 -123 6 0 10 28 10 65 0 65 -1 71 -13
58z"/>
<path d="M10540 8385 c0 -37 4 -65 10 -65 6 0 10 18 10 40 0 35 4 43 30 58 16
9 30 20 30 25 0 13 -23 8 -42 -10 -17 -15 -18 -15 -18 0 0 10 -4 17 -10 17 -6
0 -10 -28 -10 -65z"/>
<path d="M10663 8442 c-23 -15 -34 -62 -20 -90 10 -22 19 -27 51 -27 23 0 41
5 44 13 3 9 -2 10 -22 3 -20 -8 -30 -6 -48 9 l-23 19 48 1 c43 0 47 2 47 24 0
42 -43 69 -77 48z m55 -34 c3 -15 -4 -18 -33 -18 -33 0 -35 2 -25 21 14 24 53
22 58 -3z"/>
<path d="M10793 8443 c-25 -10 -12 -19 21 -15 24 3 35 -1 39 -12 5 -12 0 -16
-17 -16 -36 0 -70 -32 -62 -58 6 -19 14 -22 58 -20 l50 2 -4 48 c-7 68 -35 92
-85 71z m65 -79 c-4 -20 -40 -35 -58 -24 -23 14 -3 40 30 40 24 0 31 -4 28
-16z"/>
<path d="M10984 8441 c-8 -9 -4 -121 5 -121 6 0 11 24 13 53 3 48 5 52 28 52
23 0 25 -4 28 -52 2 -29 7 -53 12 -53 5 0 10 24 12 53 3 48 5 52 28 52 23 0
26 -5 31 -55 l6 -55 -1 65 -1 65 -78 0 c-43 0 -80 -2 -83 -4z"/>
<path d="M11207 8432 c-20 -22 -22 -71 -4 -96 15 -20 78 -19 85 2 3 9 -2 10
-20 3 -15 -5 -31 -5 -41 0 -29 17 -19 29 22 29 48 0 56 11 39 47 -16 35 -57
42 -81 15z m61 -14 c20 -20 14 -28 -23 -28 -22 0 -35 5 -35 13 0 28 36 37 58
15z"/>
<path d="M13326 8434 c-22 -22 -24 -77 -4 -101 15 -19 62 -16 81 5 51 56 -24
149 -77 96z m62 -16 c20 -20 15 -66 -9 -78 -16 -9 -25 -8 -40 6 -21 19 -24 36
-9 65 12 21 40 25 58 7z"/>
<path d="M13450 8383 c0 -35 4 -63 10 -63 6 0 10 22 10 49 0 35 4 51 16 55 38
14 44 7 44 -49 0 -32 4 -55 10 -55 7 0 10 24 8 63 l-3 62 -47 1 -48 1 0 -64z"/>
<path d="M13606 8434 c-22 -22 -24 -77 -4 -101 15 -19 62 -16 81 5 51 56 -24
149 -77 96z m62 -16 c20 -20 15 -66 -9 -78 -16 -9 -25 -8 -40 6 -21 19 -24 36
-9 65 12 21 40 25 58 7z"/>
<path d="M13738 8444 c-12 -11 -10 -124 2 -124 6 0 10 15 10 34 0 34 14 56 48
75 9 5 14 13 10 17 -4 4 -18 -1 -32 -9 -22 -15 -25 -15 -28 -1 -2 9 -6 12 -10
8z"/>
<path d="M4114 6626 c-17 -8 -34 -21 -38 -31 -12 -33 -6 -83 15 -109 18 -23
28 -27 63 -24 l41 3 3 48 c3 46 3 47 -27 47 -17 0 -31 -4 -31 -10 0 -5 9 -10
20 -10 16 0 20 -7 20 -30 0 -27 -3 -30 -29 -30 -39 0 -61 24 -61 66 0 57 45
88 91 64 13 -8 19 -7 19 0 0 8 -43 32 -53 30 -1 -1 -16 -7 -33 -14z"/>
<path d="M3960 6545 l0 -85 45 0 c25 0 45 5 45 10 0 6 -16 10 -35 10 l-35 0 0
75 c0 43 -4 75 -10 75 -6 0 -10 -35 -10 -85z"/>
<path d="M6810 6455 c0 -20 -5 -25 -25 -25 -51 0 -81 -61 -55 -111 9 -15 20
-19 55 -17 l45 1 0 89 c0 52 -4 88 -10 88 -5 0 -10 -11 -10 -25z m0 -89 c0
-34 -4 -45 -19 -49 -28 -7 -51 11 -51 41 0 34 16 52 47 52 21 0 23 -5 23 -44z"/>
<path d="M13660 6390 l0 -90 39 0 c63 0 91 57 55 109 -12 17 -24 22 -45 19
-26 -4 -29 -2 -29 24 0 15 -4 28 -10 28 -6 0 -10 -37 -10 -90z m78 8 c20 -20
14 -56 -13 -74 -13 -8 -29 -13 -35 -9 -11 7 -14 78 -3 88 10 11 38 8 51 -5z"/>
<path d="M6440 6385 c0 -50 4 -85 10 -85 6 0 10 16 10 35 0 45 14 45 62 -2 21
-20 41 -33 45 -29 4 4 -7 18 -25 32 l-32 26 25 20 c50 39 22 88 -51 88 l-44 0
0 -85z m74 65 c35 -13 35 -47 -1 -61 -37 -14 -53 -5 -53 29 0 43 10 49 54 32z"/>
<path d="M7090 6460 c0 -5 5 -10 10 -10 6 0 10 5 10 10 0 6 -4 10 -10 10 -5 0
-10 -4 -10 -10z"/>
<path d="M10248 6463 l32 -4 0 -80 c0 -46 4 -79 10 -79 6 0 10 33 10 79 0 79
0 80 28 84 15 2 -4 4 -43 4 -38 0 -55 -2 -37 -4z"/>
<path d="M13340 6385 c0 -104 18 -114 22 -12 l3 72 40 -72 c54 -98 65 -95 63
15 l-2 87 -5 -75 -6 -75 -40 72 c-26 47 -46 73 -57 73 -16 0 -18 -11 -18 -85z"/>
<path d="M13805 6460 c4 -6 11 -8 16 -5 14 9 11 15 -7 15 -8 0 -12 -5 -9 -10z"/>
<path d="M6607 6412 c-20 -22 -22 -71 -4 -96 15 -20 78 -19 85 2 3 9 -2 10
-20 3 -15 -5 -31 -5 -41 0 -29 16 -19 28 26 31 38 3 42 5 39 28 -2 14 -9 31
-14 38 -15 18 -52 15 -71 -6z m61 -14 c20 -20 14 -28 -23 -28 -22 0 -35 5 -35
13 0 28 36 37 58 15z"/>
<path d="M6870 6363 c0 -76 18 -85 22 -10 3 48 5 52 28 52 23 0 25 -4 28 -52
2 -29 7 -53 12 -53 5 0 10 24 12 53 3 45 6 52 26 55 21 3 22 0 22 -52 0 -32 4
-56 10 -56 7 0 10 24 8 63 l-3 62 -82 1 -83 0 0 -63z"/>
<path d="M7090 6366 c0 -37 4 -66 10 -66 6 0 10 26 10 59 0 33 -4 63 -10 66
-6 4 -10 -18 -10 -59z"/>
<path d="M10366 6408 c-20 -29 -20 -58 0 -86 12 -18 24 -22 52 -20 19 2 37 9
40 16 3 9 -2 10 -22 2 -29 -11 -52 -5 -60 16 -4 11 5 14 39 14 41 0 45 2 45
23 0 51 -66 75 -94 35z m72 -20 c3 -15 -4 -18 -32 -18 -38 0 -44 8 -24 28 17
17 52 11 56 -10z"/>
<path d="M10507 6412 c-21 -23 -22 -76 -1 -96 18 -18 74 -22 74 -5 0 6 -8 9
-19 6 -31 -8 -51 11 -51 48 0 28 4 36 24 41 14 3 30 3 37 -1 7 -5 10 -3 7 6
-7 22 -52 22 -71 1z"/>
<path d="M10610 6363 c0 -35 4 -63 10 -63 6 0 10 22 10 49 0 35 4 51 16 55 38
14 44 7 44 -49 0 -32 4 -55 10 -55 7 0 10 24 8 63 l-3 62 -47 1 -48 1 0 -64z"/>
<path d="M10756 6408 c-32 -46 -7 -108 43 -108 37 0 55 23 55 67 0 59 -66 87
-98 41z m72 -10 c24 -24 4 -88 -28 -88 -16 0 -40 32 -40 54 0 26 17 46 40 46
9 0 21 -5 28 -12z"/>
<path d="M13524 6370 l1 -65 48 -1 47 -2 0 58 c0 33 -4 62 -10 65 -6 4 -10
-13 -10 -44 0 -41 -4 -52 -21 -62 -30 -15 -42 0 -50 64 -7 52 -7 52 -5 -13z"/>
<path d="M13813 6365 c0 -38 2 -53 4 -32 2 20 2 52 0 70 -2 17 -4 1 -4 -38z"/>
<path d="M13880 6420 c-16 -10 -14 -11 34 -13 43 -3 42 -22 -1 -33 -33 -8 -38
-13 -38 -39 0 -29 2 -30 48 -31 l47 -2 0 54 c0 42 -4 55 -19 64 -24 13 -51 13
-71 0z m70 -75 c0 -22 -38 -39 -56 -24 -11 9 -12 15 -3 25 15 19 59 18 59 -1z"/>
<path d="M6758 5253 c-32 -8 -19 -22 15 -16 43 7 66 -16 42 -41 -9 -9 -25 -16
-36 -16 -30 0 -22 -15 13 -25 18 -6 34 -18 36 -27 5 -25 -29 -39 -67 -28 -24
7 -31 6 -28 -3 5 -16 85 -21 103 -6 18 15 18 38 -2 60 -14 16 -14 20 1 42 15
24 15 27 -4 46 -20 20 -37 24 -73 14z"/>
<path d="M6440 5165 c0 -107 18 -113 22 -7 l3 77 24 -70 c37 -111 43 -111 83
5 l23 65 6 -80 5 -80 2 88 c2 107 -15 118 -48 30 -11 -32 -23 -65 -27 -73 -3
-9 -15 15 -30 58 -19 56 -29 72 -44 72 -17 0 -19 -8 -19 -85z"/>
<path d="M6670 5165 c0 -50 4 -85 10 -85 6 0 10 35 10 85 0 50 -4 85 -10 85
-6 0 -10 -35 -10 -85z"/>
<path d="M368 5054 c-11 -11 -10 -174 1 -174 6 0 11 17 13 38 3 36 4 37 46 40
l42 3 0 -40 c0 -23 5 -41 10 -41 6 0 10 35 10 84 0 47 -4 88 -10 91 -6 4 -10
-10 -10 -34 l0 -41 -44 0 -45 0 -3 41 c-2 22 -6 37 -10 33z"/>
<path d="M520 5045 c0 -9 9 -15 25 -15 24 0 25 -2 25 -75 0 -43 4 -75 10 -75
6 0 10 31 10 74 0 72 1 75 25 78 50 6 29 23 -32 26 -52 2 -63 0 -63 -13z"/>
<path d="M703 5050 c-29 -12 -43 -40 -43 -89 0 -52 27 -81 75 -81 22 0 35 5
35 13 0 9 -9 12 -28 9 -38 -5 -62 20 -62 64 0 44 32 78 66 70 26 -7 33 8 8 18
-19 7 -23 7 -51 -4z"/>
<path d="M8125 5008 c-10 -28 -55 -162 -55 -165 0 -2 4 -3 9 -3 5 0 12 11 15
25 5 21 12 25 45 25 33 0 40 -4 45 -25 4 -14 11 -25 17 -25 11 0 11 2 -25 108
-22 64 -41 87 -51 60z m33 -65 c11 -32 10 -33 -20 -33 -23 0 -29 3 -24 16 3 9
9 27 12 41 8 28 17 21 32 -24z"/>
<path d="M8254 4930 c0 -52 1 -74 3 -47 2 26 2 68 0 95 -2 26 -3 4 -3 -48z"/>
<path d="M8814 4930 c0 -52 1 -74 3 -47 2 26 2 68 0 95 -2 26 -3 4 -3 -48z"/>
<path d="M9673 5010 c-29 -12 -43 -40 -43 -89 0 -52 27 -81 75 -81 22 0 35 5
35 13 0 9 -11 12 -33 9 -41 -5 -59 15 -59 63 0 48 27 78 64 71 16 -3 28 -1 28
4 0 6 -4 10 -9 10 -5 0 -15 2 -23 4 -7 3 -23 1 -35 -4z"/>
<path d="M9508 5003 l32 -4 0 -80 c0 -46 4 -79 10 -79 6 0 10 33 10 79 0 79 0
80 28 84 15 2 -4 4 -43 4 -38 0 -55 -2 -37 -4z"/>
<path d="M9782 4928 l-2 -88 46 0 c27 0 43 4 39 10 -3 6 -21 10 -40 10 l-34 0
-4 78 -3 77 -2 -87z"/>
<path d="M12800 4925 l0 -85 55 0 c30 0 55 5 55 10 0 6 -20 10 -45 10 -43 0
-45 1 -45 30 0 29 2 30 46 30 27 0 43 4 39 10 -3 6 -24 10 -46 10 -37 0 -39 2
-39 29 0 28 2 30 48 34 46 3 46 3 -10 5 l-58 2 0 -85z"/>
<path d="M12950 4925 l0 -85 45 0 c25 0 45 5 45 10 0 6 -16 10 -35 10 l-35 0
0 75 c0 43 -4 75 -10 75 -6 0 -10 -35 -10 -85z"/>
<path d="M8570 4986 c0 -8 -6 -17 -12 -20 -10 -5 -10 -7 0 -12 6 -3 12 -23 12
-44 0 -58 8 -70 44 -69 l31 1 -27 10 c-25 9 -28 15 -28 54 0 41 2 44 26 44 14
0 23 4 19 10 -3 6 -15 10 -26 10 -10 0 -19 7 -19 15 0 8 -4 15 -10 15 -5 0
-10 -6 -10 -14z"/>
<path d="M8328 4960 c-25 -15 -33 -66 -14 -95 18 -27 69 -35 82 -14 5 8 -1 10
-19 5 -17 -4 -31 -1 -41 10 -34 33 -9 92 34 81 24 -6 36 8 14 17 -21 8 -36 7
-56 -4z"/>
<path d="M8437 4963 c-14 -13 -6 -18 25 -18 45 0 45 -20 1 -31 -33 -8 -38 -13
-38 -39 0 -29 1 -30 48 -30 l47 -1 0 51 c0 28 -5 56 -12 63 -13 13 -60 16 -71
5z m73 -70 c-1 -26 -53 -53 -65 -33 -13 21 4 40 35 40 16 0 30 -3 30 -7z"/>
<path d="M8676 4948 c-33 -47 -11 -108 39 -108 30 0 55 10 55 21 0 5 -12 4
-26 -1 -17 -7 -32 -7 -45 0 -32 18 -21 30 26 30 36 0 45 3 45 18 0 29 -29 62
-55 62 -13 0 -31 -10 -39 -22z m64 -2 c0 -2 3 -11 6 -20 5 -13 -1 -16 -30 -16
-34 0 -47 15 -29 33 7 8 53 10 53 3z"/>
<path d="M4186 4911 c-4 -5 -2 -12 3 -15 5 -4 12 -2 15 3 4 5 2 12 -3 15 -5 4
-12 2 -15 -3z"/>
<path d="M3960 4825 c0 -106 18 -113 22 -8 l3 77 26 -74 c15 -42 32 -75 39
-75 8 0 25 33 39 75 l26 75 3 -77 c4 -106 22 -99 22 8 0 82 -1 85 -22 82 -17
-2 -26 -16 -42 -65 -11 -35 -23 -63 -26 -63 -4 0 -17 29 -29 65 -18 49 -28 65
-42 65 -17 0 -19 -8 -19 -85z"/>
<path d="M4193 4805 c0 -38 2 -53 4 -32 2 20 2 52 0 70 -2 17 -4 1 -4 -38z"/>
<path d="M6440 3965 l0 -85 45 0 c25 0 45 5 45 10 0 6 -16 10 -35 10 l-35 0 0
75 c0 43 -4 75 -10 75 -6 0 -10 -35 -10 -85z"/>
<path d="M6561 3998 c16 -29 29 -68 29 -85 0 -18 5 -33 10 -33 6 0 10 17 10
38 0 21 11 54 25 77 26 42 30 55 18 55 -5 0 -19 -19 -32 -42 l-24 -42 -21 42
c-11 23 -25 42 -32 42 -8 0 -1 -20 17 -52z"/>
<path d="M6700 3964 c0 -54 4 -83 10 -79 6 3 10 19 10 36 0 27 3 29 35 29 19
0 35 5 35 10 0 6 -16 10 -35 10 -33 0 -35 2 -35 34 0 33 2 35 38 39 34 3 33 4
-10 5 l-48 2 0 -86z"/>
<path d="M4810 3130 c0 -53 4 -90 10 -90 6 0 10 37 10 90 0 53 -4 90 -10 90
-6 0 -10 -37 -10 -90z"/>
<path d="M3960 3125 c0 -106 18 -113 22 -8 l3 77 26 -74 c15 -42 32 -75 39
-75 8 0 25 33 39 75 l26 75 3 -77 c4 -106 22 -99 22 8 0 82 -1 85 -22 82 -17
-2 -26 -16 -42 -65 -11 -35 -23 -63 -27 -63 -4 0 -17 29 -29 65 -17 50 -26 65
-41 65 -17 0 -19 -8 -19 -85z"/>
<path d="M4320 3186 c0 -8 -6 -17 -12 -20 -10 -5 -10 -7 0 -12 6 -3 12 -18 12
-34 0 -50 17 -80 45 -80 14 0 25 5 25 12 0 6 -3 8 -6 5 -4 -3 -15 -2 -25 4
-14 7 -19 21 -19 49 0 36 3 40 25 40 14 0 25 5 25 10 0 6 -11 10 -25 10 -16 0
-25 6 -25 15 0 8 -4 15 -10 15 -5 0 -10 -6 -10 -14z"/>
<path d="M4186 3148 c-33 -46 -7 -108 44 -108 53 0 76 71 38 117 -17 21 -65
16 -82 -9z m72 -10 c24 -24 4 -88 -28 -88 -16 0 -40 32 -40 54 0 26 17 46 40
46 9 0 21 -5 28 -12z"/>
<path d="M4443 3162 c-23 -15 -34 -62 -21 -90 26 -55 108 -34 108 26 0 54 -48
89 -87 64z m55 -24 c17 -17 15 -54 -4 -72 -21 -22 -31 -20 -50 9 -30 46 17
100 54 63z"/>
<path d="M4568 3164 c-12 -11 -10 -124 2 -124 6 0 10 15 10 34 0 34 14 56 48
75 9 5 14 13 10 17 -4 4 -18 -1 -32 -9 -22 -15 -25 -15 -28 -1 -2 9 -6 12 -10
8z"/>
<path d="M4677 3152 c-19 -21 -22 -64 -7 -93 7 -13 21 -19 45 -19 39 0 55 20
55 68 0 54 -59 81 -93 44z m71 -42 c3 -23 -2 -38 -14 -47 -27 -19 -54 1 -54
41 0 40 7 48 40 44 21 -2 26 -9 28 -38z"/>
<path d="M4887 3163 c-14 -13 -6 -18 25 -18 17 0 33 -6 35 -12 3 -8 -4 -13
-19 -13 -36 0 -60 -22 -56 -51 3 -21 8 -24 51 -25 l47 -2 0 52 c0 29 -5 57
-12 64 -13 13 -60 16 -71 5z m63 -78 c0 -19 -32 -36 -49 -25 -8 4 -11 15 -8
24 8 20 57 22 57 1z"/>
<path d="M8133 3132 c-32 -5 -53 -40 -53 -89 0 -53 26 -83 73 -83 48 0 59 12
55 56 -3 34 -6 39 -30 42 -16 2 -28 -1 -28 -7 0 -6 9 -11 20 -11 27 0 29 -59
3 -61 -54 -4 -75 15 -75 67 0 48 32 78 74 70 15 -3 28 -2 28 3 0 11 -37 18
-67 13z"/>
<path d="M8363 3128 c-41 -20 -50 -111 -15 -150 9 -11 29 -18 48 -18 43 0 64
30 64 91 0 39 -5 51 -26 68 -30 23 -39 24 -71 9z m51 -14 c8 -3 20 -20 26 -38
13 -40 0 -80 -30 -96 -17 -9 -24 -6 -46 15 -22 22 -25 33 -21 62 9 55 31 72
71 57z"/>
<path d="M8260 3045 c0 -50 4 -85 10 -85 6 0 10 35 10 85 0 50 -4 85 -10 85
-6 0 -10 -35 -10 -85z"/>
<path d="M8500 3045 c0 -104 18 -114 22 -12 l3 72 40 -72 c54 -98 65 -95 63
15 l-2 87 -5 -75 -6 -75 -40 72 c-26 47 -46 73 -57 73 -16 0 -18 -11 -18 -85z"/>
<path d="M8680 3045 l0 -85 56 0 c34 0 53 4 49 10 -3 6 -24 10 -46 10 -37 0
-39 2 -39 30 0 28 2 30 40 30 22 0 40 5 40 10 0 6 -18 10 -40 10 -38 0 -40 2
-40 29 0 28 2 30 48 34 46 3 46 3 -10 5 l-58 2 0 -85z"/>
<path d="M8830 3045 l0 -85 50 0 c28 0 50 5 50 10 0 6 -18 10 -40 10 -38 0
-40 2 -40 30 0 28 2 30 40 30 22 0 40 5 40 10 0 6 -18 10 -40 10 -38 0 -40 2
-40 29 0 28 3 30 43 34 40 3 40 4 -10 5 l-53 2 0 -85z"/>
<path d="M10023 3048 c-41 -20 -50 -111 -15 -150 9 -11 29 -18 48 -18 43 0 64
30 64 91 0 39 -5 51 -26 68 -30 23 -39 24 -71 9z m51 -14 c8 -3 20 -20 26 -38
13 -40 0 -80 -30 -96 -17 -9 -24 -6 -46 15 -22 22 -25 33 -21 62 9 55 31 72
71 57z"/>
<path d="M9517 2998 c14 -29 30 -69 34 -88 l7 -35 1 34 c0 18 15 58 32 87 17
30 26 54 21 54 -6 0 -21 -19 -35 -42 l-25 -42 -21 42 c-12 23 -26 42 -31 42
-6 0 2 -24 17 -52z"/>
<path d="M9650 2981 c0 -81 13 -101 65 -101 24 0 38 6 45 19 13 25 13 151 0
151 -6 0 -10 -30 -10 -70 0 -59 -3 -71 -20 -80 -14 -8 -26 -8 -40 0 -17 9 -20
21 -20 80 0 40 -4 70 -10 70 -6 0 -10 -30 -10 -69z"/>
<path d="M9820 2965 c0 -50 4 -85 10 -85 6 0 10 18 10 40 l0 40 40 0 40 0 0
-40 c0 -22 5 -40 10 -40 6 0 10 35 10 85 0 50 -4 85 -10 85 -5 0 -10 -16 -10
-35 0 -34 -1 -35 -40 -35 -39 0 -40 1 -40 35 0 19 -4 35 -10 35 -6 0 -10 -35
-10 -85z"/>
<path d="M6760 2910 c0 -53 4 -90 10 -90 6 0 10 11 10 25 0 14 4 25 8 25 5 0
19 -11 32 -25 34 -36 46 -31 17 7 l-25 32 25 33 c32 41 14 44 -20 3 -14 -16
-28 -30 -31 -30 -3 0 -6 25 -6 55 0 30 -4 55 -10 55 -6 0 -10 -37 -10 -90z"/>
<path d="M6440 2905 c0 -104 18 -114 22 -12 l3 72 40 -72 c54 -98 65 -95 63
15 l-2 87 -5 -75 -6 -75 -40 72 c-26 47 -46 73 -57 73 -16 0 -18 -11 -18 -85z"/>
<path d="M6890 2980 c0 -5 5 -10 10 -10 6 0 10 5 10 10 0 6 -4 10 -10 10 -5 0
-10 -4 -10 -10z"/>
<path d="M6626 2928 c-20 -29 -20 -72 0 -92 18 -19 65 -21 82 -4 17 17 15 84
-4 102 -22 23 -60 20 -78 -6z m74 -18 c12 -23 6 -52 -15 -70 -22 -18 -55 5
-55 38 0 50 49 72 70 32z"/>
<path d="M6897 2943 c-11 -10 -8 -123 3 -123 6 0 10 28 10 65 0 65 -1 71 -13
58z"/>
<path d="M6973 2943 c-25 -10 -12 -19 21 -15 24 3 35 -1 39 -12 5 -12 0 -16
-17 -16 -37 0 -70 -32 -61 -58 6 -20 13 -22 51 -20 l44 3 0 51 c0 27 -5 55
-12 62 -12 12 -43 15 -65 5z m65 -79 c-4 -20 -40 -35 -58 -24 -23 14 -3 40 30
40 24 0 31 -4 28 -16z"/>
<path d="M474 2890 c-45 -18 -53 -119 -13 -156 10 -9 30 -16 43 -16 14 0 31
-7 37 -14 6 -8 18 -14 27 -14 13 0 13 2 -1 18 -14 16 -15 22 -2 59 18 53 5
105 -31 121 -29 14 -31 14 -60 2z m60 -26 c23 -22 24 -86 3 -112 -18 -22 -60
-10 -75 21 -10 21 -11 35 -2 62 15 46 46 58 74 29z"/>
<path d="M635 2875 c-19 -18 -25 -35 -25 -67 0 -61 21 -88 69 -88 48 0 63 17
69 80 4 42 1 52 -21 74 -33 33 -61 33 -92 1z m79 -17 c34 -48 14 -118 -34
-118 -19 0 -33 7 -40 19 -24 46 0 121 40 121 10 0 26 -10 34 -22z"/>
<path d="M811 2883 c-27 -22 -38 -83 -21 -122 21 -52 94 -59 119 -12 20 37 13
100 -14 126 -29 29 -55 32 -84 8z m71 -20 c20 -18 24 -73 8 -104 -16 -30 -68
-26 -80 7 -15 40 -12 72 10 94 24 24 38 25 62 3z"/>
<path d="M370 2805 c0 -50 4 -85 10 -85 6 0 10 35 10 85 0 50 -4 85 -10 85 -6
0 -10 -35 -10 -85z"/>
<path d="M10954 2690 c0 -52 1 -74 3 -47 2 26 2 68 0 95 -2 26 -3 4 -3 -48z"/>
<path d="M11020 2690 c0 -53 4 -90 10 -90 6 0 10 37 10 90 0 53 -4 90 -10 90
-6 0 -10 -37 -10 -90z"/>
<path d="M10590 2685 c0 -50 4 -85 10 -85 6 0 10 35 10 85 0 50 -4 85 -10 85
-6 0 -10 -35 -10 -85z"/>
<path d="M10660 2685 c0 -50 4 -85 10 -85 6 0 10 18 10 40 0 22 4 40 9 40 5 0
24 -18 41 -40 33 -42 65 -57 36 -17 -53 73 -51 64 -22 101 28 37 31 46 17 46
-5 0 -19 -16 -31 -35 -12 -19 -28 -35 -36 -35 -9 0 -14 11 -14 35 0 19 -4 35
-10 35 -6 0 -10 -35 -10 -85z"/>
<path d="M10823 2723 c-23 -9 -14 -18 19 -18 45 0 45 -20 1 -31 -33 -8 -38
-13 -38 -39 0 -29 1 -30 48 -30 l47 -1 0 51 c0 28 -5 56 -12 63 -12 12 -43 15
-65 5z m67 -78 c0 -19 -49 -40 -63 -26 -5 5 -7 17 -4 25 8 21 67 22 67 1z"/>
<path d="M9820 2190 c0 -53 4 -90 10 -90 6 0 10 37 10 90 0 53 -4 90 -10 90
-6 0 -10 -37 -10 -90z"/>
<path d="M9510 2185 c0 -50 4 -85 10 -85 6 0 10 35 10 85 0 50 -4 85 -10 85
-6 0 -10 -35 -10 -85z"/>
<path d="M9591 2251 c0 -8 -9 -20 -18 -27 -17 -12 -17 -13 -1 -14 13 0 18 -11
20 -52 3 -49 5 -53 31 -56 15 -2 27 2 27 8 0 6 -5 8 -10 5 -20 -12 -40 17 -40
56 0 35 3 39 25 39 14 0 25 5 25 10 0 6 -11 10 -24 10 -15 0 -26 7 -29 18 -3
10 -5 11 -6 3z"/>
<path d="M8095 2200 c14 -27 25 -65 25 -85 0 -19 5 -35 10 -35 6 0 10 14 10
31 0 17 14 56 31 85 17 30 26 54 21 54 -6 0 -21 -19 -35 -42 l-25 -42 -21 42
c-12 23 -26 42 -31 42 -6 0 1 -22 15 -50z"/>
<path d="M8230 2181 c0 -81 13 -101 65 -101 24 0 38 6 45 19 13 25 13 151 0
151 -6 0 -10 -30 -10 -70 0 -59 -3 -71 -20 -80 -14 -8 -26 -8 -40 0 -17 9 -20
21 -20 80 0 40 -4 70 -10 70 -6 0 -10 -30 -10 -69z"/>
<path d="M9696 2214 c-23 -22 -24 -77 -3 -102 13 -16 79 -12 85 6 3 9 -2 10
-22 3 -20 -8 -30 -6 -48 9 l-23 19 48 1 c43 0 47 2 47 24 0 29 -24 56 -50 56
-10 0 -26 -7 -34 -16z m62 -26 c3 -15 -4 -18 -33 -18 -33 0 -35 2 -25 21 14
24 53 22 58 -3z"/>
<path d="M10590 1965 c0 -50 4 -85 10 -85 6 0 10 35 10 85 0 50 -4 85 -10 85
-6 0 -10 -35 -10 -85z"/>
<path d="M10810 2029 c0 -7 -8 -18 -17 -25 -17 -12 -17 -13 -1 -14 13 0 18
-11 20 -52 3 -49 5 -53 31 -56 15 -2 27 1 27 7 0 6 -3 10 -7 10 -27 -4 -33 4
-33 46 0 38 3 45 20 45 11 0 20 5 20 10 0 6 -9 10 -20 10 -11 0 -20 7 -20 15
0 8 -4 15 -10 15 -5 0 -10 -5 -10 -11z"/>
<path d="M10660 1943 c0 -76 18 -84 22 -10 3 48 5 52 31 55 27 3 27 2 27 -52
0 -31 5 -56 10 -56 15 0 12 106 -3 118 -7 6 -29 10 -50 9 l-37 -2 0 -62z"/>
<path d="M10917 1992 c-20 -22 -22 -71 -4 -96 15 -21 78 -19 85 2 3 11 0 12
-17 3 -15 -9 -27 -9 -41 -1 -32 17 -23 29 23 32 38 3 42 5 39 28 -2 14 -9 31
-14 38 -15 18 -52 15 -71 -6z m61 -14 c20 -20 14 -28 -23 -28 -22 0 -35 5 -35
13 0 28 36 37 58 15z"/>
<path d="M11030 2004 c0 -5 9 -20 20 -34 19 -25 19 -25 -6 -57 -17 -23 -21
-33 -11 -33 7 0 20 12 28 26 l13 26 23 -28 c12 -16 25 -25 29 -22 3 4 -3 19
-15 34 -21 27 -20 35 7 67 8 9 12 20 9 23 -4 4 -15 -4 -26 -17 l-19 -24 -26
24 c-14 14 -26 20 -26 15z"/>
<path d="M6674 1938 c-4 -13 -12 -27 -18 -31 -8 -6 -8 -10 2 -14 7 -3 12 -25
12 -59 0 -30 5 -54 10 -54 6 0 10 25 10 55 0 48 2 55 20 55 11 0 20 5 20 10 0
6 -9 10 -20 10 -27 0 -25 24 3 38 22 11 22 11 -5 11 -19 1 -29 -5 -34 -21z"/>
<path d="M6450 1865 c0 -50 4 -85 10 -85 6 0 10 35 10 85 0 50 -4 85 -10 85
-6 0 -10 -35 -10 -85z"/>
<path d="M6760 1940 c0 -5 5 -10 10 -10 6 0 10 5 10 10 0 6 -4 10 -10 10 -5 0
-10 -4 -10 -10z"/>
<path d="M6970 1940 c0 -5 5 -10 10 -10 6 0 10 5 10 10 0 6 -4 10 -10 10 -5 0
-10 -4 -10 -10z"/>
<path d="M6520 1843 c0 -76 18 -84 22 -10 3 48 5 52 31 55 27 3 27 2 27 -52 0
-31 5 -56 10 -56 15 0 12 106 -3 118 -7 6 -29 10 -50 9 l-37 -2 0 -62z"/>
<path d="M6760 1845 c0 -37 4 -65 10 -65 6 0 10 28 10 65 0 37 -4 65 -10 65
-6 0 -10 -28 -10 -65z"/>
<path d="M6832 1840 c2 -63 2 -64 5 -13 4 46 7 54 28 59 36 9 45 -2 45 -57 0
-27 5 -49 10 -49 16 0 12 106 -4 119 -7 6 -30 10 -50 9 l-36 -3 2 -65z"/>
<path d="M6977 1903 c-11 -10 -8 -123 3 -123 6 0 10 28 10 65 0 65 -1 71 -13
58z"/>
<path d="M7030 1904 c0 -5 9 -20 20 -34 19 -25 19 -25 -6 -57 -28 -37 -13 -46
17 -10 l19 22 19 -25 c11 -14 23 -22 26 -18 4 4 -2 19 -14 34 -21 27 -20 35 7
67 8 9 12 20 9 23 -4 4 -15 -4 -26 -17 l-19 -24 -26 24 c-14 14 -26 20 -26 15z"/>
<path d="M3983 1550 c-17 -7 -23 -18 -23 -40 0 -27 6 -33 46 -50 33 -15 45
-25 42 -37 -3 -14 -13 -18 -51 -17 -47 0 -61 -8 -31 -20 29 -11 72 -6 88 10
30 30 15 60 -43 84 -19 8 -31 20 -31 32 0 24 25 33 56 20 19 -9 24 -9 24 2 0
8 -10 16 -22 20 -28 7 -27 7 -55 -4z"/>
<path d="M4145 1548 c-10 -28 -55 -162 -55 -165 0 -2 4 -3 10 -3 5 0 12 11 16
25 5 21 12 25 45 25 33 0 40 -4 45 -25 6 -25 25 -35 23 -12 0 6 -12 45 -27 86
-26 72 -47 97 -57 69z m44 -90 c1 -5 -12 -8 -29 -8 -19 0 -28 4 -25 13 2 6 10
26 16 42 l11 30 13 -35 c8 -19 14 -38 14 -42z"/>
<path d="M4503 1550 c-17 -7 -23 -18 -23 -40 0 -27 6 -33 46 -50 33 -15 45
-25 42 -37 -3 -14 -13 -18 -51 -17 -47 0 -61 -8 -31 -20 29 -11 72 -6 88 10
30 30 15 60 -43 84 -19 8 -31 20 -31 32 0 24 25 33 56 20 19 -9 24 -9 24 2 0
8 -10 16 -22 20 -28 7 -27 7 -55 -4z"/>
<path d="M5013 1550 c-29 -12 -43 -40 -43 -89 0 -51 27 -81 73 -81 48 0 59 12
55 56 -3 34 -6 39 -30 42 -16 2 -28 -1 -28 -7 0 -6 9 -11 20 -11 16 0 20 -7
20 -30 0 -28 -3 -30 -35 -30 -40 0 -55 20 -55 74 0 46 31 69 81 60 24 -5 31
-3 24 4 -15 16 -57 22 -82 12z"/>
<path d="M4270 1466 c0 -51 4 -86 10 -86 6 0 10 30 11 68 l0 67 26 -68 c14
-37 30 -66 36 -64 6 2 23 37 38 78 l28 74 0 -77 c1 -45 5 -78 11 -78 6 0 10
35 10 85 0 77 -2 85 -19 85 -16 0 -25 -15 -42 -70 -13 -38 -25 -67 -28 -64 -3
3 -15 33 -27 67 -13 39 -27 63 -37 65 -15 3 -17 -8 -17 -82z"/>
<path d="M4622 1480 c3 -38 11 -77 18 -85 19 -23 76 -19 94 7 18 25 23 148 6
148 -6 0 -10 -28 -10 -62 0 -68 -5 -81 -33 -91 -33 -12 -57 26 -57 93 0 38 -4
60 -11 60 -8 0 -10 -21 -7 -70z"/>
<path d="M4800 1465 c0 -101 18 -115 22 -17 l3 67 35 -67 c23 -46 40 -68 52
-68 16 0 18 10 18 85 0 104 -18 114 -22 13 l-3 -73 -39 73 c-52 98 -66 95 -66
-13z"/>
<path d="M403 1330 c-29 -12 -43 -40 -43 -89 0 -57 27 -83 83 -79 l42 3 0 45
c0 40 -3 45 -24 48 -13 2 -28 -1 -34 -7 -8 -8 -3 -11 16 -11 23 0 27 -4 27
-30 0 -28 -3 -30 -35 -30 -40 0 -55 20 -55 74 0 46 30 69 80 60 24 -5 32 -3
25 4 -15 16 -57 22 -82 12z"/>
<path d="M960 1249 c0 -57 4 -88 10 -84 6 3 10 44 10 91 0 49 -4 84 -10 84 -6
0 -10 -37 -10 -91z"/>
<path d="M537 1272 c-17 -19 -22 -68 -9 -88 27 -41 91 -31 102 16 7 28 -5 71
-23 82 -21 13 -53 9 -70 -10z m73 -28 c17 -43 -15 -81 -52 -62 -21 10 -24 58
-6 76 20 20 48 14 58 -14z"/>
<path d="M677 1272 c-17 -19 -22 -68 -9 -88 27 -41 91 -31 102 16 7 28 -5 71
-23 82 -21 13 -53 9 -70 -10z m73 -28 c17 -43 -15 -81 -52 -62 -21 10 -24 58
-6 76 20 20 48 14 58 -14z"/>
<path d="M820 1270 c-41 -41 -7 -119 47 -105 20 5 24 2 21 -12 -3 -14 -13 -18
-41 -17 -38 1 -49 -9 -21 -20 59 -23 84 6 84 98 l0 72 -35 2 c-24 2 -41 -4
-55 -18z m70 -39 c0 -31 -4 -41 -20 -46 -26 -8 -50 11 -50 39 0 28 18 46 47
46 20 0 23 -5 23 -39z"/>
<path d="M1026 1268 c-37 -52 -6 -112 55 -106 18 2 34 8 36 13 2 7 -12 9 -35
7 -29 -3 -41 0 -45 12 -5 13 2 16 38 16 41 0 45 2 45 24 0 53 -65 76 -94 34z
m72 -20 c3 -15 -4 -18 -32 -18 -38 0 -44 8 -24 28 17 17 52 11 56 -10z"/>
<path d="M6623 910 c-29 -12 -43 -40 -43 -89 0 -50 27 -81 69 -81 52 0 79 48
67 114 -9 50 -49 73 -93 56z m61 -32 c22 -31 20 -84 -4 -108 -11 -11 -24 -20
-30 -20 -23 0 -50 41 -50 77 0 64 53 96 84 51z"/>
<path d="M6903 908 c-26 -13 -45 -69 -36 -107 9 -40 33 -61 69 -61 43 0 64 30
64 91 0 39 -5 51 -26 68 -30 23 -39 24 -71 9z m51 -14 c8 -3 20 -20 26 -38 13
-40 0 -80 -30 -96 -17 -9 -24 -6 -46 15 -22 22 -25 33 -21 62 9 55 31 72 71
57z"/>
<path d="M6436 898 c4 -7 16 -26 27 -41 l19 -28 -26 -39 c-28 -43 -31 -50 -17
-50 5 0 19 16 31 36 l22 35 25 -35 c26 -39 55 -52 31 -13 -44 67 -44 62 -15
106 32 48 19 56 -14 10 l-22 -32 -26 32 c-25 30 -49 43 -35 19z"/>
<path d="M6760 825 l0 -85 45 0 c25 0 45 5 45 10 0 6 -16 10 -35 10 l-35 0 0
75 c0 43 -4 75 -10 75 -6 0 -10 -35 -10 -85z"/>
<path d="M9538 703 c23 -2 42 -6 42 -9 0 -3 -18 -32 -40 -64 -62 -91 -62 -90
9 -90 34 0 61 4 61 10 0 6 -20 10 -45 10 -25 0 -45 3 -45 6 0 3 20 34 45 68
25 35 45 66 45 70 0 3 -26 5 -57 4 -50 -1 -52 -2 -15 -5z"/>
<path d="M9646 648 c-20 -29 -20 -72 0 -92 18 -19 65 -21 82 -4 17 17 15 84
-4 102 -22 23 -60 20 -78 -6z m76 -23 c9 -19 8 -29 -6 -50 -35 -54 -85 -6 -60
59 10 25 53 20 66 -9z"/>
<path d="M9786 648 c-20 -29 -20 -72 0 -92 18 -19 65 -21 82 -4 17 17 15 84
-4 102 -22 23 -60 20 -78 -6z m76 -23 c9 -19 8 -29 -6 -50 -35 -54 -85 -6 -60
59 10 25 53 20 66 -9z"/>
<path d="M9922 600 c1 -60 2 -61 5 -15 4 50 14 65 46 65 14 0 17 -9 17 -55 0
-70 18 -72 22 -2 3 48 5 52 28 52 23 0 25 -4 28 -52 2 -29 7 -53 13 -53 14 0
11 107 -3 117 -7 4 -46 8 -85 8 l-73 1 2 -66z"/>
<path d="M8245 648 c-10 -28 -55 -162 -55 -165 0 -2 4 -3 9 -3 5 0 12 11 15
25 5 21 12 25 45 25 33 0 40 -4 45 -25 4 -14 11 -25 17 -25 11 0 11 2 -25 108
-22 64 -41 87 -51 60z m33 -65 c11 -32 10 -33 -20 -33 -23 0 -29 3 -24 16 3 9
9 27 12 41 8 28 17 21 32 -24z"/>
<path d="M8512 570 c-17 -49 -26 -90 -21 -90 5 0 11 11 15 25 5 21 12 25 45
25 33 0 40 -4 45 -25 6 -25 25 -35 23 -12 -1 26 -55 161 -65 164 -7 2 -24 -33
-42 -87z m67 -12 c1 -5 -12 -8 -29 -8 -19 0 -28 4 -25 13 2 6 10 26 16 42 l11
30 13 -35 c8 -19 14 -38 14 -42z"/>
<path d="M8080 565 l0 -85 45 0 c25 0 45 5 45 10 0 6 -16 10 -35 10 l-35 0 0
75 c0 43 -4 75 -10 75 -6 0 -10 -35 -10 -85z"/>
<path d="M8340 643 c0 -28 54 -163 65 -163 14 0 71 157 61 167 -9 9 -11 5 -36
-77 l-23 -75 -25 78 c-15 42 -30 77 -34 77 -4 0 -8 -3 -8 -7z"/>
</g>
</svg>
